<?xml version="1.0" encoding="UTF-8"?>
<!-- Generator: visioncortex VTracer 0.6.3 -->
<svg version="1.1" xmlns="http://www.w3.org/2000/svg" width="1280" height="449">
<path d="M0 0 C422.4 0 844.8 0 1280 0 C1280 148.17 1280 296.34 1280 449 C857.6 449 435.2 449 0 449 C0 300.83 0 152.66 0 0 Z " fill="#000002" transform="translate(0,0)"/>
<path d="M0 0 C1.31 -0.01 2.62 -0.01 3.98 -0.02 C7.54 -0.03 11.11 -0.03 14.67 -0.03 C17.66 -0.03 20.66 -0.03 23.65 -0.04 C30.73 -0.05 37.8 -0.05 44.87 -0.04 C52.13 -0.03 59.38 -0.05 66.64 -0.07 C72.91 -0.09 79.17 -0.09 85.44 -0.09 C89.17 -0.09 92.89 -0.09 96.62 -0.1 C144.73 -0.27 144.73 -0.27 160.1 14.83 C175.11 31.4 176.48 51.58 176.44 73.03 C176.45 74.85 176.45 74.85 176.45 76.7 C176.45 79.99 176.45 83.28 176.45 86.57 C176.45 90.04 176.45 93.5 176.45 96.97 C176.45 102.78 176.45 108.59 176.45 114.41 C176.44 121.1 176.44 127.8 176.45 134.49 C176.45 140.27 176.45 146.05 176.45 151.83 C176.45 155.27 176.45 158.71 176.45 162.14 C176.45 165.98 176.45 169.81 176.44 173.65 C176.45 174.77 176.45 175.89 176.45 177.04 C176.43 186.75 175.91 196.18 173.44 205.59 C173.28 206.25 173.12 206.91 172.95 207.6 C169.96 219.33 162.6 229.72 152.19 236.02 C139.39 242.59 125.8 243.42 111.73 243.44 C110.37 243.44 109.01 243.45 107.65 243.45 C103.96 243.46 100.28 243.47 96.59 243.47 C94.28 243.48 91.97 243.48 89.66 243.49 C82.41 243.5 75.15 243.51 67.9 243.51 C59.57 243.52 51.25 243.54 42.92 243.56 C36.45 243.59 29.99 243.6 23.52 243.6 C19.68 243.6 15.83 243.6 11.98 243.62 C-35.67 243.83 -35.67 243.83 -53.92 227.24 C-70.35 210.19 -68.15 184.15 -68.09 162.21 C-68.08 158.44 -68.09 154.67 -68.09 150.9 C-68.1 144.57 -68.09 138.24 -68.08 131.91 C-68.06 124.64 -68.06 117.37 -68.08 110.09 C-68.09 103.8 -68.1 97.51 -68.09 91.22 C-68.08 87.48 -68.08 83.74 -68.09 80 C-68.21 31.79 -68.21 31.79 -52.02 15.39 C-37.72 2.43 -18.64 -0.04 0 0 Z " fill="#C5112E" transform="translate(151.6845703125,100.725341796875)"/>
<path d="M0 0 C10.71 9.41 14.28 19.91 15.18 33.82 C15.53 47.76 12.97 60.93 3.25 71.44 C-4.76 78.77 -15.04 82.48 -25.88 82.2 C-31.04 81.71 -36.09 80.64 -41 79 C-40.99 80.49 -40.99 80.49 -40.98 82.01 C-40.97 85.69 -40.95 89.37 -40.95 93.04 C-40.94 94.64 -40.93 96.23 -40.92 97.83 C-40.91 100.11 -40.91 102.4 -40.9 104.68 C-40.9 105.4 -40.89 106.12 -40.89 106.86 C-40.89 108.57 -40.94 110.29 -41 112 C-43.41 114.41 -49.2 113.98 -52.53 114.06 C-54.69 114.06 -56.84 114.04 -59 114 C-60.2 111.61 -60.14 110.1 -60.16 107.43 C-60.17 106.47 -60.18 105.51 -60.19 104.52 C-60.19 103.46 -60.2 102.4 -60.21 101.31 C-60.22 100.2 -60.23 99.08 -60.24 97.94 C-60.27 94.25 -60.29 90.56 -60.32 86.87 C-60.34 84.31 -60.36 81.76 -60.38 79.21 C-60.43 73.17 -60.47 67.12 -60.52 61.08 C-60.57 54.2 -60.62 47.33 -60.68 40.45 C-60.79 26.3 -60.9 12.15 -61 -2 C-57.93 -3.53 -54.73 -3.1 -51.38 -3.06 C-50.32 -3.06 -50.32 -3.06 -49.23 -3.05 C-47.49 -3.04 -45.74 -3.02 -44 -3 C-41 3.75 -41 3.75 -41 6 C-40.38 5.53 -39.77 5.06 -39.13 4.57 C-27.44 -4.02 -13.31 -8.35 0 0 Z " fill="#FBFCFD" transform="translate(575,240)"/>
<path d="M0 0 C9.42 7.02 14.15 18.69 16 30 C16.91 44.9 15.09 58.96 5.25 70.69 C-2.71 79.19 -11.4 82.28 -22.94 83.38 C-26.65 83.24 -30.15 82.33 -33.75 81.48 C-35.51 81.06 -35.51 81.06 -37.3 80.64 C-38.19 80.43 -39.08 80.22 -40 80 C-39.99 81.49 -39.99 81.49 -39.98 83.01 C-39.97 86.69 -39.95 90.37 -39.95 94.04 C-39.94 95.64 -39.93 97.23 -39.92 98.83 C-39.91 101.11 -39.91 103.4 -39.9 105.68 C-39.9 106.4 -39.89 107.12 -39.89 107.86 C-39.89 109.57 -39.94 111.29 -40 113 C-42.41 115.41 -48.2 114.98 -51.53 115.06 C-53.69 115.06 -55.84 115.04 -58 115 C-59.2 112.61 -59.14 111.1 -59.16 108.43 C-59.17 107.47 -59.18 106.51 -59.19 105.52 C-59.19 104.46 -59.2 103.4 -59.21 102.31 C-59.22 101.2 -59.23 100.08 -59.24 98.94 C-59.27 95.25 -59.29 91.56 -59.32 87.87 C-59.34 85.31 -59.36 82.76 -59.38 80.21 C-59.43 74.17 -59.47 68.12 -59.52 62.08 C-59.57 55.2 -59.62 48.33 -59.68 41.45 C-59.79 27.3 -59.9 13.15 -60 -1 C-56.97 -2.52 -53.83 -2.23 -50.5 -2.25 C-49.81 -2.27 -49.12 -2.29 -48.41 -2.31 C-46.41 -2.33 -46.41 -2.33 -43 -2 C-41.01 0.99 -40.06 3.6 -39 7 C-38.07 6.09 -37.14 5.19 -36.19 4.25 C-26.43 -4.02 -11.43 -6.19 0 0 Z " fill="#FBFCFD" transform="translate(661,239)"/>
<path d="M0 0 C0.8 0 1.6 0.01 2.43 0.01 C4.41 0.03 6.39 0.04 8.38 0.06 C11.2 4.76 13.41 9.39 15.25 14.56 C15.77 15.98 16.28 17.39 16.8 18.8 C17.06 19.51 17.32 20.22 17.59 20.95 C18.81 24.24 20.12 27.5 21.44 30.75 C23.69 36.33 25.88 41.94 28 47.57 C29.58 51.59 31.24 55.57 32.91 59.55 C35.46 65.65 37.99 71.77 40.51 77.89 C41.13 79.38 41.75 80.87 42.37 82.37 C46.3 91.84 50.13 101.32 53.38 111.06 C50.29 111.21 47.21 111.3 44.12 111.38 C43.25 111.42 42.38 111.46 41.48 111.5 C35.1 111.62 35.1 111.62 32.02 109.24 C29.62 104.61 27.93 99.81 26.25 94.88 C25.56 92.88 24.88 90.89 24.18 88.89 C23.73 87.58 23.73 87.58 23.27 86.23 C22.47 83.9 22.47 83.9 20.38 82.06 C17.31 81.87 14.34 81.81 11.28 81.83 C9.93 81.83 9.93 81.83 8.55 81.83 C6.64 81.84 4.73 81.84 2.82 81.86 C-0.11 81.87 -3.04 81.88 -5.97 81.88 C-7.83 81.88 -9.68 81.89 -11.53 81.89 C-12.85 81.9 -12.85 81.9 -14.2 81.9 C-18.55 81.8 -18.55 81.8 -22.62 83.06 C-23.67 85.7 -24.61 88.31 -25.5 91 C-26.03 92.55 -26.56 94.1 -27.1 95.65 C-27.36 96.41 -27.62 97.16 -27.88 97.94 C-31.85 109.29 -31.85 109.29 -33.62 111.06 C-34.97 111.15 -36.31 111.17 -37.66 111.16 C-38.47 111.16 -39.28 111.15 -40.11 111.15 C-40.96 111.14 -41.81 111.13 -42.69 111.12 C-43.54 111.12 -44.4 111.12 -45.28 111.11 C-47.39 111.1 -49.51 111.08 -51.62 111.06 C-51.07 105.85 -49.8 101.37 -47.81 96.51 C-47.52 95.79 -47.23 95.06 -46.94 94.32 C-45.98 91.94 -45.02 89.56 -44.06 87.19 C-43.04 84.65 -42.03 82.1 -41.01 79.56 C-40.31 77.79 -39.6 76.01 -38.89 74.24 C-34.59 63.5 -30.4 52.71 -26.21 41.93 C-25.27 39.5 -24.32 37.07 -23.38 34.65 C-23.08 33.87 -22.77 33.09 -22.46 32.29 C-20.8 28.03 -19.12 23.79 -17.41 19.55 C-17.04 18.64 -16.68 17.73 -16.3 16.79 C-15.59 15.04 -14.88 13.29 -14.17 11.54 C-13.69 10.36 -13.69 10.36 -13.21 9.15 C-12.93 8.45 -12.64 7.76 -12.35 7.05 C-11.57 5.06 -11.57 5.06 -11.15 2.87 C-10.98 2.27 -10.8 1.68 -10.62 1.06 C-7.32 -0.59 -3.63 -0.04 0 0 Z " fill="#FBFCFD" transform="translate(452.625,208.9375)"/>
<path d="M0 0 C1.46 1.73 1.46 1.73 2 4 C1.1 7.02 1.1 7.02 -0.38 10.25 C-0.86 11.33 -1.34 12.41 -1.84 13.52 C-2.41 14.75 -2.41 14.75 -3 16 C-3.68 15.73 -4.36 15.47 -5.05 15.2 C-20.35 9.39 -35.53 7.28 -51 14 C-60.06 19.22 -65.14 26.53 -68.05 36.46 C-71.04 48.88 -70.77 64.44 -65 76 C-60.49 83.37 -52.96 88.34 -44.67 90.65 C-41.07 91.12 -37.5 91.18 -33.88 91.19 C-33.18 91.2 -32.48 91.21 -31.77 91.22 C-25.46 91.24 -20.47 90.18 -14 89 C-14.33 81.41 -14.66 73.82 -15 66 C-22.52 66.04 -22.52 66.04 -30.05 66.09 C-31.45 66.09 -31.45 66.09 -32.87 66.1 C-33.83 66.1 -34.79 66.11 -35.78 66.11 C-38 66 -38 66 -39 65 C-39.07 62.81 -39.08 60.62 -39.06 58.44 C-39.05 57.24 -39.04 56.04 -39.04 54.81 C-39.02 53.88 -39.01 52.95 -39 52 C-35.56 50.28 -31.62 50.88 -27.84 50.9 C-26.93 50.9 -26.02 50.91 -25.09 50.91 C-22.18 50.91 -19.28 50.92 -16.38 50.94 C-14.41 50.94 -12.44 50.95 -10.48 50.95 C-5.65 50.96 -0.83 50.98 4 51 C5.19 53.37 5.12 54.8 5.11 57.45 C5.11 58.83 5.11 58.83 5.11 60.24 C5.11 61.24 5.1 62.23 5.1 63.26 C5.1 64.28 5.09 65.29 5.09 66.34 C5.09 69.6 5.08 72.86 5.06 76.12 C5.06 78.33 5.05 80.54 5.05 82.75 C5.04 88.16 5.02 93.58 5 99 C2.96 99.8 0.93 100.6 -1.11 101.39 C-2.25 101.83 -3.38 102.28 -4.55 102.74 C-22.66 109.38 -43.46 110.44 -61.22 102.41 C-74.46 95.7 -83.12 86.79 -87.78 72.63 C-89.9 65.62 -90.54 59.11 -90.5 51.81 C-90.49 50.72 -90.49 49.63 -90.48 48.51 C-90.13 32.44 -85.07 18.53 -73.31 7.19 C-64.29 -0.43 -54.51 -3.94 -43 -6 C-42.31 -6.14 -41.61 -6.29 -40.89 -6.43 C-28.43 -8.59 -11.34 -5.88 0 0 Z " fill="#FBFCFD" transform="translate(777,214)"/>
<path d="M0 0 C1.62 1.74 2.86 3.48 4.12 5.49 C4.59 6.23 5.06 6.97 5.55 7.73 C9.22 13.89 10.21 19.23 10.34 26.39 C10.37 27.53 10.39 28.66 10.41 29.84 C10.43 31.05 10.45 32.26 10.47 33.51 C10.51 35.39 10.51 35.39 10.54 37.31 C10.59 39.96 10.64 42.6 10.68 45.24 C10.73 48.64 10.8 52.03 10.86 55.43 C10.93 58.66 10.98 61.9 11.04 65.14 C11.06 66.36 11.08 67.58 11.11 68.84 C11.12 69.96 11.14 71.09 11.16 72.24 C11.18 73.23 11.19 74.23 11.21 75.25 C11.12 77.49 11.12 77.49 10.12 78.49 C7.65 78.65 5.22 78.72 2.75 78.74 C2.06 78.76 1.37 78.78 0.67 78.8 C-4.36 78.84 -4.36 78.84 -6.81 77.18 C-8.36 74.73 -8.56 72.33 -8.88 69.49 C-9.35 69.88 -9.83 70.27 -10.31 70.66 C-19.24 77.69 -27.74 81.2 -39.26 80.31 C-46.68 79.06 -52.93 74.97 -57.88 69.37 C-62 63.45 -61.48 56.48 -60.88 49.49 C-59.95 46.2 -58.64 43.42 -56.88 40.49 C-56.34 39.58 -55.81 38.68 -55.25 37.74 C-44.27 27.33 -28.98 28.2 -14.9 28.35 C-12.8 28.5 -10.91 28.92 -8.88 29.49 C-9.92 19.68 -9.92 19.68 -14.88 11.49 C-24.34 6.68 -36.08 9.33 -45.77 12.24 C-47.46 12.74 -49.17 13.12 -50.88 13.49 C-53.47 10.9 -53.25 9.47 -53.5 5.87 C-53.58 4.86 -53.65 3.86 -53.73 2.83 C-53.78 2.06 -53.83 1.29 -53.88 0.49 C-38.89 -6.08 -14.09 -11.31 0 0 Z " fill="#FAFBFC" transform="translate(856.87890625,241.5078125)"/>
<path d="M0 0 C8.8 6.4 13.21 16.1 15.55 26.43 C16.16 31.25 16 36.14 16 41 C-1.82 41 -19.64 41 -38 41 C-36.34 53.06 -36.34 53.06 -30 61 C-20.29 66.94 -10.98 67.08 0 64.56 C3.05 63.8 6.02 62.99 9 62 C12.57 65.73 13.11 70.09 14 75 C-0.08 81.86 -16.72 84.22 -32 80 C-39.86 77.21 -48.36 71.39 -52.94 64.33 C-59.88 49.11 -59.18 33.56 -54 18 C-50.02 8.97 -43.97 2.43 -34.81 -1.38 C-23.59 -5.54 -10.66 -5.85 0 0 Z " fill="#FAFBFC" transform="translate(1027,240)"/>
<path d="M0 0 C0.8 0 1.6 0.01 2.43 0.01 C4.41 0.03 6.39 0.04 8.38 0.06 C12.17 7.98 14.89 16.19 17.64 24.52 C18.43 26.93 19.24 29.33 20.04 31.74 C27.38 53.78 27.38 53.78 27.38 59.06 C28.37 59.39 29.36 59.72 30.38 60.06 C30.8 58.58 30.8 58.58 31.23 57.06 C34.64 45.32 38.37 33.68 42.18 22.07 C42.77 20.27 43.35 18.47 43.93 16.67 C44.76 14.1 45.6 11.55 46.45 8.99 C46.7 8.2 46.95 7.42 47.21 6.61 C47.84 4.73 48.6 2.89 49.38 1.06 C52.99 -0.14 56.3 -0.05 60.06 0 C60.76 0 61.47 0.01 62.19 0.01 C63.92 0.03 65.65 0.04 67.38 0.06 C68.74 3.77 67.99 6.03 66.69 9.69 C66.31 10.76 65.93 11.83 65.54 12.93 C64.26 16.38 62.89 19.79 61.5 23.2 C60.09 26.79 58.83 30.42 57.56 34.06 C55.46 40.11 53.23 46.1 50.88 52.06 C48.55 57.96 46.34 63.89 44.25 69.88 C40.52 80.54 36.8 91.12 31.38 101.06 C30.93 101.9 30.48 102.73 30.02 103.59 C28.18 106.35 26.27 108.12 23.69 110.19 C22.88 110.85 22.07 111.51 21.24 112.2 C14.76 116.42 8.9 117.54 1.25 117.38 C0.09 117.38 0.09 117.38 -1.09 117.38 C-5.59 117.34 -9.47 117 -13.62 115.06 C-14.79 111.58 -14.4 110.39 -13.38 106.94 C-13.12 106.05 -12.87 105.16 -12.61 104.24 C-12.12 103.16 -12.12 103.16 -11.62 102.06 C-7.15 100.57 -2.76 101.15 1.93 101.32 C6.79 100.96 9.25 99.29 12.5 95.75 C16.34 90.25 18 86.67 17.07 79.98 C16.11 75.97 14.61 72.26 13.01 68.46 C10.7 62.99 8.73 57.44 6.81 51.81 C4.31 44.47 1.69 37.17 -1.03 29.91 C-1.32 29.12 -1.62 28.32 -1.92 27.51 C-3.41 23.54 -4.91 19.57 -6.41 15.6 C-6.96 14.14 -7.51 12.67 -8.06 11.2 C-8.32 10.53 -8.58 9.85 -8.85 9.15 C-9.92 6.3 -10.62 4.14 -10.62 1.06 C-7.32 -0.59 -3.63 -0.04 0 0 Z " fill="#FAFBFC" transform="translate(1126.625,236.9375)"/>
<path d="M0 0 C5.89 4.94 11.51 10.64 12.74 18.46 C13.45 27.66 14.01 36.47 8.74 44.46 C8.08 45.51 7.42 46.56 6.74 47.64 C1.82 52.97 -4.93 56 -12.03 56.97 C-22.61 57.27 -30.26 55.5 -38.2 48.39 C-43.69 42.48 -45.21 35.98 -45.7 28.08 C-45.32 19.17 -42.49 10.46 -36.2 4.04 C-27.23 -3.31 -10.23 -6.42 0 0 Z " fill="#FBFCFD" transform="translate(911.26171875,103.54296875)"/>
<path d="M0 0 C6.02 4.64 11.11 11.94 12.19 19.56 C12.33 21.83 12.36 24.06 12.33 26.34 C12.32 27.13 12.32 27.93 12.31 28.75 C12.14 34.71 11.34 39.47 7.89 44.46 C7.46 45.1 7.02 45.74 6.57 46.41 C2.4 51.85 -2.71 54.33 -9.11 56.46 C-20.37 57.29 -28.4 56.37 -37.42 49.27 C-43.56 43.51 -45.73 36.65 -46.2 28.36 C-45.86 18.22 -42.39 9.84 -35.36 2.65 C-25.75 -3.82 -10.5 -5.66 0 0 Z " fill="#FBFCFD" transform="translate(625.10546875,103.5390625)"/>
<path d="M0 0 C1.94 1.94 1.12 4.89 1.12 7.47 C1.12 8.4 1.12 9.33 1.11 10.29 C1.11 11.27 1.11 12.24 1.11 13.25 C1.11 16.49 1.11 19.73 1.1 22.97 C1.1 25.21 1.09 27.45 1.09 29.69 C1.09 35.6 1.08 41.51 1.07 47.42 C1.06 53.45 1.05 59.48 1.05 65.5 C1.04 77.33 1.02 89.17 1 101 C3.92 102.52 6.52 103.46 9.75 104.12 C11.15 104.41 12.55 104.7 14 105 C14.5 111.44 14.5 111.44 15 118 C6.97 119.98 -0.78 121.34 -8.59 117.84 C-13.72 114.73 -16.39 111.94 -18 106 C-18.97 99.81 -19.15 93.65 -19.16 87.4 C-19.17 86.48 -19.17 85.57 -19.18 84.63 C-19.19 81.64 -19.2 78.65 -19.2 75.66 C-19.21 74.64 -19.21 73.61 -19.21 72.56 C-19.23 67.15 -19.24 61.74 -19.24 56.32 C-19.25 50.73 -19.27 45.14 -19.3 39.55 C-19.32 35.25 -19.32 30.94 -19.32 26.64 C-19.33 24.58 -19.33 22.51 -19.35 20.45 C-19.36 17.58 -19.36 14.7 -19.36 11.83 C-19.37 10.97 -19.37 10.12 -19.38 9.24 C-19.34 3.43 -19.34 3.43 -17.65 1.29 C-15.22 -0.61 -13.11 -0.55 -10.06 -0.75 C-9.02 -0.83 -7.98 -0.9 -6.91 -0.98 C-4.34 -1 -2.42 -0.83 0 0 Z " fill="#FBFCFD" transform="translate(949,202)"/>
<path d="M0 0 C1 1 1 1 1.11 4.69 C1.11 6.38 1.11 8.07 1.1 9.75 C1.1 10.67 1.09 11.59 1.09 12.54 C1.09 14.54 1.08 16.54 1.08 18.55 C1.06 21.72 1.06 24.88 1.05 28.05 C1.04 35.93 1.01 43.8 0.99 51.68 C0.97 58.32 0.95 64.96 0.94 71.61 C0.94 74.73 0.93 77.85 0.91 80.97 C0.91 82.89 0.91 84.81 0.9 86.73 C0.9 87.6 0.89 88.47 0.89 89.36 C0.81 95.26 0.81 95.26 2 101 C4.9 103.25 4.9 103.25 8.56 103.5 C12 104 12 104 14 106 C14.41 108.6 14.41 108.6 14.62 111.62 C14.7 112.63 14.77 113.63 14.85 114.66 C14.9 115.43 14.95 116.21 15 117 C9.3 120.26 2.68 120.45 -3.69 119.38 C-13.84 115.16 -13.84 115.16 -16.59 110.05 C-18.54 105.28 -18.4 100.65 -18.34 95.57 C-18.34 94.54 -18.34 93.52 -18.34 92.46 C-18.34 89.09 -18.32 85.72 -18.29 82.35 C-18.29 80 -18.28 77.66 -18.28 75.32 C-18.27 69.16 -18.24 63 -18.21 56.85 C-18.18 50.56 -18.16 44.27 -18.15 37.98 C-18.11 25.65 -18.06 13.33 -18 1 C-15.94 0.63 -13.88 0.28 -11.81 -0.06 C-10.66 -0.26 -9.52 -0.46 -8.33 -0.66 C-5.2 -0.98 -3 -0.87 0 0 Z " fill="#FBFCFD" transform="translate(902,202)"/>
<path d="M0 0 C1.43 -0.03 1.43 -0.03 2.89 -0.05 C3.69 0.07 4.49 0.19 5.31 0.31 C7.87 4.16 7.23 5.54 6.44 10 C6.23 11.18 6.03 12.36 5.82 13.57 C5.65 14.48 5.49 15.38 5.31 16.31 C2.76 16.84 0.21 17.33 -2.37 17.71 C-9.93 18.85 -14.75 20.79 -19.81 26.7 C-23.7 32.01 -23.53 37.04 -23.46 43.43 C-23.47 44.57 -23.48 45.71 -23.49 46.89 C-23.52 50.51 -23.51 54.13 -23.5 57.75 C-23.51 61.4 -23.54 65.04 -23.56 68.69 C-23.58 70.95 -23.58 73.21 -23.58 75.48 C-23.58 76.49 -23.58 77.51 -23.58 78.55 C-23.57 79.45 -23.57 80.35 -23.57 81.27 C-23.69 83.31 -23.69 83.31 -24.69 84.31 C-27.35 84.44 -29.97 84.5 -32.62 84.5 C-33.37 84.51 -34.11 84.52 -34.87 84.54 C-36.81 84.54 -38.75 84.43 -40.69 84.31 C-43.55 81.45 -43 78.58 -43.01 74.74 C-43.02 73.57 -43.02 73.57 -43.04 72.38 C-43.07 69.79 -43.08 67.2 -43.1 64.62 C-43.12 62.83 -43.14 61.04 -43.16 59.24 C-43.21 54.53 -43.25 49.81 -43.29 45.09 C-43.33 40.28 -43.38 35.46 -43.43 30.65 C-43.53 21.21 -43.61 11.76 -43.69 2.31 C-40.65 0.8 -37.51 1.09 -34.19 1.06 C-33.5 1.04 -32.81 1.02 -32.1 1 C-30.09 0.98 -30.09 0.98 -26.69 1.31 C-24.67 4.35 -24.39 5.4 -24.12 8.88 C-23.87 12.22 -23.87 12.22 -22.69 15.31 C-22.19 14.47 -21.7 13.62 -21.19 12.75 C-16.1 5.12 -9.32 0.04 0 0 Z " fill="#FBFCFD" transform="translate(1100.6875,235.6875)"/>
<path d="M0 0 C5.54 3.5 8.81 9.25 10.38 15.5 C10.68 18.94 10.7 22.36 10.69 25.81 C10.7 26.71 10.72 27.61 10.74 28.54 C10.74 35.99 9.75 43.67 4.5 49.38 C4.03 49.91 3.56 50.44 3.07 50.99 C-1.58 55.13 -5.43 55.98 -11.56 55.88 C-12.25 55.89 -12.94 55.9 -13.65 55.91 C-18.44 55.88 -21.46 54.73 -25.62 52.5 C-25.8 46.34 -25.93 40.19 -26.01 34.03 C-26.04 31.94 -26.09 29.84 -26.15 27.75 C-26.24 24.74 -26.28 21.73 -26.31 18.71 C-26.34 17.78 -26.38 16.85 -26.42 15.89 C-26.42 9.53 -26.42 9.53 -24.16 6.6 C-17.04 0.3 -9.34 -1.78 0 0 Z " fill="#000002" transform="translate(646.625,251.5)"/>
<path d="M0 0 C5.68 4.89 8.75 10.54 9.45 18.12 C9.55 20.5 9.58 22.87 9.56 25.25 C9.55 26.51 9.55 26.51 9.55 27.8 C9.37 36.77 8.08 43.64 1.95 50.46 C-2.75 54.54 -6.56 55.41 -12.69 55.31 C-13.38 55.32 -14.07 55.34 -14.78 55.35 C-19.56 55.32 -22.59 54.16 -26.75 51.94 C-26.92 45.78 -27.05 39.63 -27.13 33.47 C-27.17 31.37 -27.22 29.28 -27.28 27.19 C-27.36 24.18 -27.4 21.16 -27.43 18.15 C-27.47 17.22 -27.51 16.29 -27.54 15.33 C-27.55 8.97 -27.55 8.97 -25.28 6.04 C-18.3 -0.13 -9.04 -3.49 0 0 Z " fill="#000002" transform="translate(560.75,252.0625)"/>
<path d="M0 0 C3.48 -0.09 6.96 -0.14 10.44 -0.19 C11.41 -0.21 12.39 -0.24 13.39 -0.26 C21.12 -0.34 27.84 0.38 33.94 5.44 C37.5 9.86 38.46 13.07 38.32 18.69 C37.63 23.72 35.07 27 31.38 30.44 C29 32 29 32 27 32 C28.33 35.68 29.98 38.64 32.26 41.83 C32.88 42.71 33.51 43.59 34.15 44.5 C35.13 45.86 35.13 45.86 36.12 47.25 C37.42 49.07 38.72 50.88 40.01 52.7 C40.58 53.5 41.16 54.3 41.75 55.13 C43 57 43 57 43 58 C41.63 58.31 40.26 58.57 38.88 58.81 C38.11 58.96 37.34 59.11 36.55 59.27 C32.69 58.86 30.51 56.78 28 54 C25.51 50.44 23.36 46.67 21.23 42.89 C20.79 42.15 20.34 41.4 19.88 40.64 C19.49 39.97 19.11 39.29 18.71 38.59 C16.52 36.25 16.52 36.25 10 36 C10 43.26 10 50.52 10 58 C1 58 1 58 -1 57 C-1.03 49.2 -1.04 41.41 -1.05 33.61 C-1.06 30.96 -1.07 28.3 -1.08 25.65 C-1.09 21.84 -1.09 18.03 -1.1 14.23 C-1.1 13.03 -1.11 11.84 -1.11 10.61 C-1.11 8.96 -1.11 8.96 -1.11 7.28 C-1.12 6.3 -1.12 5.33 -1.12 4.33 C-1 2 -1 2 0 0 Z " fill="#FBFCFD" transform="translate(649,101)"/>
<path d="M0 0 C1.16 -0.06 1.16 -0.06 2.34 -0.12 C6.89 0.99 8.74 5.57 11.07 9.34 C11.97 10.83 12.86 12.32 13.75 13.81 C17.43 19.91 21.18 25.94 25.12 31.88 C25.53 32.49 25.94 33.11 26.36 33.75 C28.26 36.58 30.17 39.08 32.62 41.44 C32.64 40.27 32.66 39.1 32.69 37.89 C32.76 33.55 32.85 29.22 32.94 24.88 C32.98 23.01 33.02 21.13 33.05 19.25 C33.09 16.56 33.15 13.86 33.21 11.16 C33.22 10.32 33.23 9.48 33.25 8.61 C33.4 2.67 33.4 2.67 35.62 0.44 C38.62 0.19 38.62 0.19 41.62 0.44 C43.62 2.44 43.62 2.44 43.87 4.8 C43.86 6.29 43.86 6.29 43.85 7.81 C43.85 8.93 43.85 10.05 43.85 11.2 C43.84 12.42 43.83 13.63 43.82 14.88 C43.82 16.12 43.81 17.36 43.81 18.64 C43.8 21.94 43.78 25.24 43.76 28.53 C43.74 31.9 43.73 35.26 43.72 38.63 C43.7 45.23 43.67 51.83 43.62 58.44 C40.15 59.36 37.24 59.81 33.62 59.44 C28.55 56.24 25.98 51.7 22.94 46.69 C22.42 45.85 21.9 45.01 21.37 44.15 C20.31 42.43 19.25 40.7 18.19 38.97 C16.71 36.57 15.21 34.19 13.69 31.8 C13.24 31.09 12.78 30.37 12.31 29.63 C11.46 28.29 10.6 26.94 9.75 25.6 C7.67 22.31 5.92 19.11 4.62 15.44 C3.97 15.44 3.3 15.44 2.62 15.44 C2.79 16.08 2.95 16.72 3.12 17.39 C3.78 21.36 3.75 25.22 3.72 29.24 C3.72 30.07 3.72 30.91 3.72 31.77 C3.71 34.43 3.7 37.09 3.69 39.75 C3.68 41.56 3.68 43.37 3.67 45.17 C3.66 49.6 3.65 54.02 3.62 58.44 C-2.43 59.41 -2.43 59.41 -4.38 59.44 C-6.97 56.85 -6.63 55.8 -6.63 52.19 C-6.64 51.1 -6.65 50 -6.65 48.88 C-6.65 47.69 -6.64 46.5 -6.64 45.28 C-6.64 44.07 -6.64 42.85 -6.65 41.6 C-6.65 39.04 -6.64 36.47 -6.64 33.9 C-6.63 29.95 -6.64 26.01 -6.65 22.07 C-6.65 19.58 -6.64 17.08 -6.64 14.59 C-6.65 12.81 -6.65 12.81 -6.65 11 C-6.65 9.9 -6.64 8.81 -6.63 7.68 C-6.63 6.72 -6.63 5.75 -6.63 4.75 C-6.16 0.45 -3.83 0.11 0 0 Z " fill="#FAFBFC" transform="translate(941.375,100.5625)"/>
<path d="M0 0 C1.2 -0.01 1.2 -0.01 2.42 -0.03 C21.39 0.1 21.39 0.1 27.11 5.18 C31.75 10.23 33.37 14.11 33.28 20.96 C32.56 26.97 28.53 31.53 24 35.3 C19.02 37.85 13.97 37.43 8.51 37.27 C6.06 37.01 6.06 37.01 5 38.3 C4.84 39.79 4.75 41.28 4.68 42.77 C4.64 43.67 4.6 44.57 4.56 45.5 C4.5 46.92 4.5 46.92 4.44 48.36 C4.39 49.31 4.35 50.26 4.31 51.24 C4.2 53.59 4.1 55.95 4 58.3 C2.52 58.33 1.04 58.35 -0.44 58.36 C-1.26 58.37 -2.08 58.39 -2.93 58.4 C-5 58.3 -5 58.3 -6 57.3 C-6.1 55.59 -6.14 53.88 -6.15 52.17 C-6.15 51.08 -6.16 49.98 -6.16 48.85 C-6.17 47.66 -6.17 46.47 -6.17 45.24 C-6.17 44.03 -6.17 42.81 -6.18 41.56 C-6.18 38.99 -6.19 36.41 -6.19 33.84 C-6.19 29.88 -6.21 25.93 -6.22 21.98 C-6.23 19.48 -6.23 16.99 -6.23 14.49 C-6.24 13.3 -6.24 12.11 -6.25 10.89 C-6.25 9.24 -6.25 9.24 -6.24 7.56 C-6.24 6.59 -6.25 5.62 -6.25 4.62 C-5.8 0.45 -3.72 0.04 0 0 Z " fill="#FAFBFC" transform="translate(501,100.69921875)"/>
<path d="M0 0 C5.25 4.13 7.86 10.73 8.79 17.21 C8.95 24.29 8.65 31.2 3.65 36.59 C-1.45 41.17 -5.4 42.11 -12.2 42.03 C-15.6 41.73 -17.84 40.67 -20.7 38.81 C-21.58 38.28 -22.47 37.74 -23.38 37.19 C-27.79 32.66 -28.85 27 -29.07 20.81 C-28.83 13.66 -26.93 6.9 -21.7 1.81 C-15.89 -2.51 -6.57 -2.89 0 0 Z " fill="#000002" transform="translate(618.6953125,110.1875)"/>
<path d="M0 0 C4.44 3.35 7.48 8.94 8.42 14.38 C8.57 16.67 8.58 18.92 8.54 21.22 C8.55 21.98 8.57 22.75 8.58 23.53 C8.54 29.19 7.24 32.5 4.04 37.16 C-1.04 41.86 -5.29 42.62 -12.04 42.57 C-18.01 41.73 -22.38 38.24 -25.96 33.53 C-28.92 26.51 -29.24 17.93 -26.71 10.72 C-24.14 5.47 -21.85 1.79 -16.16 -0.33 C-10.96 -1.55 -5.01 -2.15 0 0 Z " fill="#000002" transform="translate(904.96484375,109.84375)"/>
<path d="M0 0 C10.56 0 21.12 0 32 0 C32.66 1.32 33.32 2.64 34 4 C33.34 5.65 32.68 7.3 32 9 C24.74 9 17.48 9 10 9 C9.98 11.08 9.96 13.17 9.94 15.31 C9.93 16.48 9.91 17.66 9.9 18.86 C9.85 22.03 9.85 22.03 11 25 C11.86 24.99 11.86 24.99 12.73 24.98 C15.3 24.96 17.87 24.95 20.44 24.94 C21.78 24.92 21.78 24.92 23.16 24.91 C24.01 24.91 24.87 24.91 25.75 24.9 C26.93 24.89 26.93 24.89 28.14 24.89 C30 25 30 25 31 26 C31 28.31 31 30.62 31 33 C24.07 33 17.14 33 10 33 C10.33 38.61 10.66 44.22 11 50 C12.49 49.99 13.99 49.98 15.52 49.96 C17.47 49.96 19.42 49.95 21.38 49.94 C22.36 49.93 23.34 49.92 24.36 49.91 C25.77 49.91 25.77 49.91 27.21 49.9 C28.08 49.9 28.95 49.89 29.85 49.89 C32 50 32 50 34 51 C33.67 53.31 33.34 55.62 33 58 C28.32 58.02 23.64 58.04 18.96 58.05 C17.36 58.06 15.77 58.07 14.17 58.08 C11.89 58.09 9.6 58.09 7.32 58.1 C6.6 58.1 5.88 58.11 5.14 58.11 C3.43 58.11 1.71 58.06 0 58 C-1.69 56.31 -1.13 54.18 -1.13 51.87 C-1.13 50.23 -1.13 50.23 -1.14 48.55 C-1.14 47.36 -1.13 46.17 -1.13 44.94 C-1.13 43.73 -1.13 42.51 -1.14 41.26 C-1.14 38.69 -1.13 36.11 -1.13 33.54 C-1.13 29.58 -1.13 25.63 -1.14 21.68 C-1.14 19.18 -1.13 16.69 -1.13 14.19 C-1.13 13 -1.14 11.81 -1.14 10.59 C-1.14 9.49 -1.13 8.39 -1.13 7.26 C-1.13 6.29 -1.13 5.32 -1.13 4.32 C-1 2 -1 2 0 0 Z " fill="#FBFCFD" transform="translate(701,101)"/>
<path d="M0 0 C3.48 -0.56 6.54 -0.76 10 0 C12.75 2.6 14.3 5.65 16 9 C16.79 10.31 17.58 11.63 18.38 12.94 C20 16 20 16 20 18 C21.32 18.33 22.64 18.66 24 19 C24.63 17.95 25.25 16.9 25.9 15.82 C26.72 14.45 27.55 13.07 28.38 11.69 C28.79 11 29.2 10.31 29.62 9.6 C30.02 8.93 30.42 8.26 30.84 7.57 C31.2 6.96 31.57 6.35 31.95 5.72 C34.81 1.05 34.81 1.05 37.09 0.45 C38.28 0.35 38.28 0.35 39.5 0.25 C40.69 0.13 40.69 0.13 41.91 0.02 C44 0 44 0 46 1 C44.67 4.7 43.02 7.59 40.69 10.75 C37.41 15.33 34.59 20.01 32 25 C31.57 25.63 31.13 26.26 30.68 26.91 C29.72 29.1 29.72 29.1 31.05 31.59 C31.66 32.55 32.26 33.51 32.88 34.5 C33.53 35.55 34.18 36.61 34.85 37.69 C37.6 41.92 40.37 46.14 43.2 50.31 C44.89 52.83 46.46 55.39 48 58 C44.8 59.6 42.55 59.41 39 59 C32.78 55.96 29.78 49.61 26.66 43.76 C24.98 40.27 24.98 40.27 22 38 C21.52 38.79 21.52 38.79 21.04 39.6 C19.59 42.01 18.14 44.41 16.69 46.81 C16.19 47.65 15.69 48.48 15.17 49.34 C14.69 50.14 14.2 50.94 13.7 51.77 C13.25 52.51 12.81 53.25 12.35 54.01 C11.04 55.94 9.77 57.48 8 59 C5.27 59.39 2.77 59.14 0 59 C-0.5 57.51 -0.5 57.51 -1 56 C0.15 54.31 1.31 52.63 2.55 51.01 C4.02 48.97 5.2 46.91 6.38 44.69 C9.17 39.5 12.55 34.77 16 30 C12.16 21.85 7.5 14.26 2.06 7.06 C0 4 0 4 0 0 Z " fill="#FBFCFD" transform="translate(440,101)"/>
<path d="M0 0 C3.04 -0.39 3.04 -0.39 6.91 -0.4 C7.59 -0.4 8.27 -0.4 8.97 -0.41 C10.41 -0.41 11.85 -0.4 13.29 -0.39 C15.49 -0.38 17.7 -0.39 19.9 -0.41 C21.3 -0.41 22.7 -0.4 24.09 -0.4 C25.37 -0.4 26.64 -0.39 27.96 -0.39 C28.96 -0.26 29.97 -0.13 31 0 C33 3 33 3 32 9 C24.41 9 16.82 9 9 9 C8.67 13.62 8.34 18.24 8 23 C8.66 23 9.32 23 10 23 C10 23.66 10 24.32 10 25 C10.85 24.98 10.85 24.98 11.71 24.97 C14.27 24.93 16.82 24.9 19.38 24.88 C20.26 24.86 21.15 24.84 22.07 24.82 C22.92 24.82 23.77 24.81 24.65 24.8 C25.83 24.79 25.83 24.79 27.03 24.77 C29 25 29 25 31 27 C31.19 29.56 31.19 29.56 31 32 C30 33 30 33 27.96 33.11 C26.65 33.11 26.65 33.11 25.31 33.1 C24.36 33.09 23.42 33.09 22.45 33.09 C21.45 33.08 20.46 33.07 19.44 33.06 C18.44 33.06 17.44 33.05 16.42 33.05 C13.94 33.04 11.47 33.02 9 33 C8.97 35.48 8.95 37.96 8.94 40.44 C8.93 41.14 8.92 41.85 8.91 42.58 C8.9 44.39 8.95 46.19 9 48 C10.61 49.61 12.4 49.2 14.62 49.28 C15.56 49.32 16.49 49.36 17.46 49.39 C18.44 49.43 19.42 49.46 20.44 49.5 C22.37 49.57 24.31 49.64 26.25 49.72 C27.54 49.76 27.54 49.76 28.86 49.81 C31 50 31 50 33 51 C32.67 53.31 32.34 55.62 32 58 C27.48 58.02 22.96 58.04 18.44 58.05 C16.9 58.06 15.36 58.07 13.82 58.08 C11.61 58.09 9.4 58.09 7.2 58.1 C6.16 58.11 6.16 58.11 5.11 58.11 C0.23 58.11 0.23 58.11 -2 57 C-2.05 49.36 -2.09 41.73 -2.11 34.09 C-2.12 31.49 -2.13 28.9 -2.15 26.3 C-2.18 22.57 -2.19 18.84 -2.2 15.11 C-2.21 13.94 -2.22 12.77 -2.23 11.57 C-2.23 10.49 -2.23 9.41 -2.23 8.3 C-2.23 7.34 -2.24 6.39 -2.24 5.41 C-2 3 -2 3 0 0 Z " fill="#FBFCFD" transform="translate(401,101)"/>
<path d="M0 0 C0.86 -0 1.72 -0.01 2.6 -0.01 C3.53 -0.01 4.46 -0.01 5.42 -0 C6.85 -0 6.85 -0 8.3 -0.01 C10.32 -0.01 12.33 -0.01 14.35 -0 C17.44 0 20.54 -0 23.63 -0.01 C25.58 -0.01 27.53 -0.01 29.49 -0 C30.88 -0.01 30.88 -0.01 32.31 -0.01 C33.17 -0.01 34.03 -0 34.91 0 C35.67 0 36.43 0 37.21 0 C38.96 0.13 38.96 0.13 39.96 1.13 C40.08 4.63 40.08 4.63 39.96 8.13 C35.92 12.16 28.65 9.77 22.96 10.13 C22.63 25.97 22.3 41.81 21.96 58.13 C18.99 58.13 16.02 58.13 12.96 58.13 C11.39 56.56 11.8 54.99 11.77 52.81 C11.75 51.89 11.73 50.97 11.71 50.03 C11.7 49.03 11.69 48.03 11.67 47 C11.66 45.99 11.64 44.97 11.62 43.92 C11.54 39.55 11.47 35.18 11.4 30.8 C11.35 27.62 11.29 24.44 11.24 21.25 C11.22 20.26 11.21 19.26 11.2 18.23 C11.18 17.31 11.16 16.4 11.14 15.45 C11.13 14.64 11.12 13.83 11.11 12.99 C11.16 11.11 11.16 11.11 9.96 10.13 C6.37 9.84 2.77 9.68 -0.82 9.51 C-4.04 9.13 -4.04 9.13 -6.04 7.13 C-5.32 0.01 -5.32 0.01 0 0 Z " fill="#FAFBFC" transform="translate(796.044921875,100.87060546875)"/>
<path d="M0 0 C3.56 0.19 3.56 0.19 5.56 2.19 C5.8 4.13 5.8 4.13 5.77 6.53 C5.77 7.43 5.77 8.32 5.76 9.25 C5.75 10.22 5.74 11.19 5.72 12.19 C5.72 13.19 5.71 14.18 5.71 15.2 C5.69 18.39 5.66 21.57 5.62 24.75 C5.6 27.94 5.57 31.12 5.55 34.31 C5.54 36.29 5.52 38.28 5.5 40.26 C5.49 41.16 5.49 42.05 5.48 42.97 C5.47 43.77 5.46 44.56 5.46 45.37 C5.36 47.21 5.36 47.21 6.56 48.19 C8.12 48.34 9.69 48.44 11.25 48.5 C12.67 48.57 12.67 48.57 14.12 48.63 C15.11 48.67 16.1 48.71 17.12 48.75 C18.62 48.81 18.62 48.81 20.15 48.88 C22.62 48.99 25.09 49.09 27.56 49.19 C27.56 49.85 27.56 50.51 27.56 51.19 C28.22 51.19 28.88 51.19 29.56 51.19 C29.23 53.5 28.9 55.81 28.56 58.19 C24.18 58.38 19.81 58.56 15.43 58.72 C13.94 58.78 12.45 58.85 10.96 58.91 C8.82 59.01 6.68 59.09 4.54 59.16 C2.61 59.24 2.61 59.24 0.64 59.32 C-2.44 59.19 -2.44 59.19 -4.44 57.19 C-4.68 54.83 -4.68 54.83 -4.68 51.84 C-4.68 50.72 -4.69 49.6 -4.69 48.45 C-4.68 47.24 -4.68 46.03 -4.67 44.78 C-4.67 43.54 -4.67 42.3 -4.67 41.03 C-4.66 37.73 -4.65 34.44 -4.63 31.15 C-4.62 27.79 -4.62 24.44 -4.62 21.08 C-4.62 18.54 -4.61 16 -4.61 13.46 C-4.6 12.25 -4.6 11.04 -4.6 9.79 C-4.6 8.67 -4.59 7.56 -4.58 6.41 C-4.58 5.42 -4.58 4.44 -4.57 3.42 C-4.35 -0.24 -3.8 0.21 0 0 Z " fill="#FBFCFD" transform="translate(548.4375,100.8125)"/>
<path d="M0 0 C2.45 5.39 4.29 10.86 6.04 16.52 C6.74 19.15 6.74 19.15 9 20 C9.27 18.82 9.27 18.82 9.55 17.62 C12.41 5.66 12.41 5.66 15 1 C17.19 0.06 17.19 0.06 19 0 C22.07 3.48 23.25 7.33 24.56 11.69 C25.31 14.16 26.11 16.57 27 19 C27.66 19.33 28.32 19.66 29 20 C29.11 19.38 29.22 18.77 29.33 18.13 C30.44 12.22 31.95 6.65 34 1 C35.65 0.67 37.3 0.34 39 0 C40.11 1.63 40.11 1.63 41 4 C40.43 6.79 40.43 6.79 39.3 9.97 C38.89 11.12 38.49 12.27 38.07 13.45 C37.64 14.64 37.2 15.83 36.75 17.06 C36.12 18.86 36.12 18.86 35.47 20.69 C32.32 29.51 32.32 29.51 30 33 C27.69 32.81 27.69 32.81 25 32 C22.63 28.61 21.21 25.14 19.88 21.25 C18.9 17.85 18.9 17.85 17 15 C16.66 16.05 16.32 17.1 15.98 18.18 C15.53 19.55 15.08 20.93 14.62 22.31 C14.29 23.35 14.29 23.35 13.95 24.4 C12.9 27.61 11.88 30.18 10 33 C7.69 32.81 7.69 32.81 5 32 C2.71 28.71 1.27 25.36 -0.04 21.59 C-0.39 20.58 -0.75 19.57 -1.11 18.53 C-1.46 17.49 -1.82 16.45 -2.19 15.38 C-2.56 14.33 -2.92 13.28 -3.3 12.2 C-6 4.39 -6 4.39 -6 1 C-4 0 -4 0 0 0 Z " fill="#FAFBFC" transform="translate(216,222)"/>
<path d="M0 0 C3.07 2.55 4.02 5.23 5.3 8.96 C5.72 10.16 6.14 11.35 6.57 12.58 C7.01 13.85 7.44 15.11 7.88 16.38 C8.72 18.82 9.58 21.27 10.43 23.71 C10.8 24.8 11.18 25.88 11.56 27 C13.61 32.7 15.82 38.34 18 44 C7.44 44 -3.12 44 -14 44 C-13.26 38.8 -12.51 35.1 -10.75 30.31 C-10.3 29.1 -9.86 27.88 -9.4 26.62 C-8.12 23.32 -6.77 20.07 -5.38 16.81 C-3.04 11.33 -1.4 5.79 0 0 Z " fill="#000002" transform="translate(451,231)"/>
<path d="M0 0 C0.99 0.33 1.98 0.66 3 1 C3.83 11.78 0.78 19.67 -6.08 27.96 C-12.89 35.19 -21.78 40.67 -31.79 41.2 C-46.77 41.48 -56.66 38.35 -68.18 28.05 C-74.63 21.23 -78.1 12.42 -78 3 C-77.67 2.34 -77.34 1.68 -77 1 C-75.35 1.33 -73.7 1.66 -72 2 C-71.85 2.75 -71.71 3.5 -71.55 4.27 C-69.52 13.56 -66.75 21.74 -58.69 27.38 C-57.14 28.28 -55.58 29.15 -54 30 C-53.33 30.41 -52.67 30.82 -51.98 31.25 C-44.26 35.49 -34.46 35.21 -26.03 33.34 C-17.41 30.26 -10.51 23.9 -6 16 C-4.24 11.75 -3.41 7.36 -2.56 2.86 C-2.28 1.94 -2.28 1.94 -2 1 C-1.34 0.67 -0.68 0.34 0 0 Z " fill="#FBFCFD" transform="translate(243,141)"/>
<path d="M0 0 C1.23 0.09 2.47 0.18 3.74 0.27 C6.69 0.62 6.69 0.62 7.69 1.62 C8.45 6.88 9.13 12.44 7.69 17.62 C3.49 22.24 -2.56 25.27 -8.8 25.86 C-14.81 26.02 -18.67 25.91 -23.31 21.62 C-25.32 18.47 -25.51 16.31 -25.12 12.62 C-25.05 11.78 -24.97 10.93 -24.89 10.06 C-24.22 7.22 -23.31 5.75 -21.31 3.62 C-19.48 2.61 -19.48 2.61 -17.5 1.94 C-16.85 1.71 -16.21 1.48 -15.54 1.24 C-10.22 -0.23 -5.5 -0.43 0 0 Z " fill="#000002" transform="translate(840.3125,281.375)"/>
<path d="M0 0 C3.5 -0.31 3.5 -0.31 7 0 C9 2 9 2 9.24 4.37 C9.24 5.36 9.23 6.35 9.23 7.37 C9.23 9.05 9.23 9.05 9.23 10.76 C9.22 11.98 9.21 13.19 9.2 14.45 C9.19 15.69 9.19 16.93 9.19 18.2 C9.18 21.5 9.16 24.8 9.14 28.1 C9.12 31.46 9.11 34.83 9.1 38.19 C9.08 44.79 9.04 51.4 9 58 C7.54 58.03 6.08 58.05 4.62 58.06 C3.41 58.08 3.41 58.08 2.16 58.1 C0 58 0 58 -2 57 C-2.05 49.36 -2.09 41.73 -2.11 34.09 C-2.12 31.49 -2.13 28.9 -2.15 26.3 C-2.18 22.57 -2.19 18.84 -2.2 15.11 C-2.21 13.94 -2.22 12.77 -2.23 11.57 C-2.23 10.49 -2.23 9.41 -2.23 8.3 C-2.23 7.34 -2.24 6.39 -2.24 5.41 C-2 3 -2 3 0 0 Z " fill="#FBFCFD" transform="translate(773,101)"/>
<path d="M0 0 C2.27 2.27 1.74 8.11 2 11 C6.29 11.33 10.58 11.66 15 12 C15 8.04 15 4.08 15 0 C16.65 -0.33 18.3 -0.66 20 -1 C22 1 22 1 22.23 4.07 C22.22 5.36 22.21 6.65 22.2 7.98 C22.19 8.66 22.19 9.35 22.19 10.05 C22.18 12.24 22.15 14.43 22.12 16.62 C22.11 18.11 22.11 19.59 22.1 21.08 C22.08 24.72 22.04 28.36 22 32 C20.02 32 18.04 32 16 32 C14.17 28.35 14.36 24.02 14 20 C10.04 20 6.08 20 2 20 C1.67 23.96 1.34 27.92 1 32 C-0.65 32 -2.3 32 -4 32 C-6 30 -6 30 -6.23 27.02 C-6.22 25.77 -6.21 24.53 -6.2 23.24 C-6.19 22.58 -6.19 21.92 -6.19 21.23 C-6.18 19.11 -6.15 16.99 -6.12 14.88 C-6.11 13.44 -6.11 12 -6.1 10.57 C-6.08 7.04 -6.04 3.52 -6 0 C-3.5 -1.25 -2.6 -0.84 0 0 Z " fill="#FBFCFD" transform="translate(117,223)"/>
<path d="M0 0 C0.87 0.01 1.74 0.02 2.63 0.03 C3.58 0.04 4.52 0.04 5.49 0.05 C6.47 0.07 7.46 0.08 8.47 0.1 C9.46 0.11 10.46 0.12 11.48 0.13 C13.93 0.15 16.39 0.19 18.85 0.23 C19.18 2.54 19.51 4.85 19.85 7.23 C11.93 7.72 11.93 7.72 3.85 8.23 C4.18 9.55 4.51 10.87 4.85 12.23 C8.15 12.89 11.45 13.55 14.85 14.23 C14.85 15.88 14.85 17.53 14.85 19.23 C11.22 19.56 7.59 19.89 3.85 20.23 C3.85 21.88 3.85 23.53 3.85 25.23 C4.9 25.26 5.96 25.3 7.06 25.34 C8.44 25.41 9.83 25.47 11.22 25.54 C11.92 25.56 12.62 25.58 13.34 25.61 C15.37 25.72 15.37 25.72 18.85 26.23 C20.85 29.23 20.85 29.23 20.47 31.41 C20.16 32.31 20.16 32.31 19.85 33.23 C16.22 33.28 12.6 33.32 8.97 33.35 C7.94 33.37 6.91 33.39 5.84 33.4 C4.36 33.41 4.36 33.41 2.85 33.42 C1.49 33.44 1.49 33.44 0.09 33.45 C-2.15 33.23 -2.15 33.23 -4.15 31.23 C-4.41 28.37 -4.41 28.37 -4.42 24.76 C-4.42 23.47 -4.43 22.17 -4.43 20.84 C-4.42 20.17 -4.42 19.49 -4.42 18.8 C-4.4 16.73 -4.42 14.67 -4.43 12.61 C-4.43 11.32 -4.42 10.03 -4.42 8.7 C-4.42 7.5 -4.42 6.31 -4.41 5.08 C-4.1 1.66 -3.55 0.37 0 0 Z " fill="#FBFCFD" transform="translate(266.15478515625,221.77294921875)"/>
<path d="M0 0 C3.19 2.19 3.19 2.19 5 5 C5.58 5.74 6.15 6.49 6.75 7.25 C8 10 8 10 9 19 C-1.89 19 -12.78 19 -24 19 C-25.17 14.31 -24.34 12.01 -22 8 C-15.71 -0.45 -10.57 -1.09 0 0 Z " fill="#000002" transform="translate(1015,250)"/>
<path d="M0 0 C2.97 1.26 3.45 2.91 4.8 5.81 C5.55 7.41 5.55 7.41 6.32 9.05 C6.9 10.32 7.47 11.6 8.05 12.87 C8.39 13.63 8.74 14.39 9.1 15.17 C10.21 17.61 11.32 20.05 12.42 22.5 C12.78 23.29 13.14 24.08 13.51 24.9 C13.84 25.65 14.17 26.39 14.51 27.16 C14.8 27.83 15.1 28.49 15.41 29.18 C16.05 30.87 16.05 30.87 16.05 32.87 C13.86 33.18 13.86 33.18 11.05 32.87 C8.23 30.5 8.23 30.5 6.05 27.87 C6.05 27.21 6.05 26.55 6.05 25.87 C4.11 25.96 2.17 26.07 0.23 26.18 C-1.38 26.27 -1.38 26.27 -3.04 26.36 C-6.2 26.92 -7.06 27.36 -8.95 29.87 C-9.61 30.86 -10.27 31.85 -10.95 32.87 C-13.58 33.06 -13.58 33.06 -15.95 32.87 C-16.64 31.27 -16.64 31.27 -16.95 28.87 C-15.73 25.91 -15.73 25.91 -13.89 22.5 C-10.62 16.3 -7.84 10.03 -5.21 3.54 C-3.81 0.56 -3.31 -0.22 0 0 Z " fill="#FAFBFC" transform="translate(195.953125,222.12890625)"/>
<path d="M0 0 C0.6 0.23 1.2 0.45 1.81 0.69 C1.82 1.3 1.83 1.92 1.84 2.55 C1.89 5.35 1.98 8.14 2.06 10.94 C2.08 11.91 2.09 12.87 2.11 13.87 C2.23 19.45 2.23 19.45 4.66 24.34 C7.55 26.15 9.47 26.12 12.81 25.69 C15.29 23.21 15.07 22.42 15.12 19 C15.15 18.08 15.17 17.15 15.2 16.19 C15.23 14.24 15.26 12.28 15.29 10.32 C15.32 9.39 15.34 8.46 15.37 7.5 C15.38 6.65 15.4 5.8 15.41 4.92 C15.9 2.21 16.59 1.29 18.81 -0.31 C19.8 -0.31 20.79 -0.31 21.81 -0.31 C23.79 3.65 23.09 8.58 23.12 12.94 C23.15 13.98 23.18 15.01 23.21 16.08 C23.26 22.25 23.1 26.09 18.81 30.69 C14.4 33.79 8.97 33.4 3.81 32.69 C0.09 31.09 -2.34 29.17 -4.35 25.64 C-5.58 21.29 -5.52 17.07 -5.5 12.56 C-5.52 11.66 -5.53 10.75 -5.55 9.82 C-5.55 8.95 -5.55 8.08 -5.55 7.18 C-5.56 5.99 -5.56 5.99 -5.56 4.78 C-5.19 2.69 -5.19 2.69 -3.91 0.84 C-2.19 -0.31 -2.19 -0.31 0 0 Z " fill="#FBFCFD" transform="translate(152.1875,222.3125)"/>
<path d="M0 0 C10.18 -0.4 10.18 -0.4 14 2 C16.31 4.55 17.83 6.51 18.23 10 C18.02 14.03 17.16 15.8 14.56 19 C10.99 21.58 7.45 21.48 3.17 21.37 C1 21 1 21 -1 19 C-1.17 16.13 -1.23 13.37 -1.19 10.5 C-1.19 9.71 -1.19 8.93 -1.19 8.12 C-1.14 2.28 -1.14 2.28 0 0 Z " fill="#000002" transform="translate(506,109)"/>
<path d="M0 0 C1.75 -0.05 3.5 -0.09 5.25 -0.12 C6.22 -0.15 7.2 -0.17 8.2 -0.2 C11.07 0 12.61 0.46 15 2 C17.48 4.99 17.99 6.58 18.06 10.5 C16.64 15.18 15 16.28 11 19 C7.53 20.16 4.64 20.07 1 20 C-0.15 17.7 -0.12 16.42 -0.1 13.87 C-0.09 13.06 -0.09 12.26 -0.09 11.43 C-0.08 10.58 -0.07 9.74 -0.06 8.88 C-0.06 8.03 -0.05 7.18 -0.05 6.3 C-0.04 4.2 -0.02 2.1 0 0 Z " fill="#000002" transform="translate(659,109)"/>
<path d="M0 0 C1.06 3.46 1.13 6.65 1.13 10.26 C1.13 11.46 1.14 12.66 1.14 13.9 C1.13 15.15 1.13 16.4 1.12 17.69 C1.13 18.95 1.13 20.21 1.14 21.51 C1.14 22.71 1.13 23.9 1.13 25.14 C1.13 26.24 1.13 27.34 1.13 28.47 C1 31 1 31 0 32 C-1.67 32.04 -3.33 32.04 -5 32 C-6.46 29.08 -6.11 26.5 -6.1 23.24 C-6.1 22.58 -6.09 21.92 -6.09 21.23 C-6.09 19.11 -6.08 16.99 -6.06 14.88 C-6.06 13.44 -6.05 12 -6.05 10.57 C-6.04 7.04 -6.02 3.52 -6 0 C-3.51 -1.25 -2.59 -0.78 0 0 Z " fill="#FBFCFD" transform="translate(300,223)"/>
<path d="M0 0 C0.66 0 1.32 0 2 0 C5 5.62 5 5.62 5 9 C2.69 9 0.38 9 -2 9 C-2.33 8.34 -2.66 7.68 -3 7 C-2.06 4.64 -1.07 2.3 0 0 Z " fill="#C5112E" transform="translate(194,233)"/>
</svg>
