<?xml version="1.0" encoding="UTF-8"?>
<!-- Generator: visioncortex VTracer 0.6.3 -->
<svg version="1.1" xmlns="http://www.w3.org/2000/svg" width="1280" height="384">
<path d="M0 0 C422.4 0 844.8 0 1280 0 C1280 126.72 1280 253.44 1280 384 C857.6 384 435.2 384 0 384 C0 257.28 0 130.56 0 0 Z " fill="#FBFCFE" transform="translate(0,0)"/>
<path d="M0 0 C1.29 -0 2.58 -0.01 3.92 -0.02 C7.44 -0.03 10.97 -0.03 14.5 -0.04 C16.71 -0.04 18.92 -0.05 21.13 -0.05 C28.08 -0.06 35.02 -0.07 41.97 -0.08 C49.94 -0.08 57.91 -0.1 65.88 -0.13 C72.07 -0.15 78.26 -0.16 84.45 -0.16 C88.14 -0.16 91.82 -0.17 95.5 -0.19 C143.39 -0.41 143.39 -0.41 158.86 12.9 C173.5 28.71 176.27 48.91 176.23 69.77 C176.23 71.05 176.24 72.33 176.24 73.64 C176.26 77.11 176.26 80.58 176.25 84.05 C176.25 86.96 176.26 89.88 176.26 92.8 C176.27 99.69 176.27 106.59 176.27 113.48 C176.26 120.54 176.28 127.6 176.3 134.66 C176.31 140.77 176.32 146.88 176.32 152.99 C176.31 156.61 176.32 160.24 176.33 163.87 C176.51 212.9 176.51 212.9 159.95 230.16 C146.67 242.54 128.64 244.63 111.27 244.55 C109.87 244.55 108.48 244.56 107.08 244.57 C103.34 244.58 99.59 244.57 95.85 244.56 C91.9 244.56 87.95 244.56 84 244.57 C77.38 244.57 70.75 244.57 64.12 244.55 C56.5 244.54 48.88 244.54 41.25 244.56 C34.67 244.57 28.08 244.57 21.5 244.57 C17.58 244.56 13.66 244.56 9.75 244.57 C6.06 244.58 2.38 244.57 -1.3 244.56 C-3.27 244.55 -5.24 244.56 -7.21 244.57 C-18.96 244.49 -31.01 243.11 -41.48 237.41 C-42.49 236.88 -42.49 236.88 -43.51 236.33 C-56.03 229.48 -61.83 220.11 -66.18 206.65 C-68.94 195.52 -69.2 184.11 -69.19 172.69 C-69.2 171.5 -69.2 170.32 -69.2 169.1 C-69.21 165.22 -69.21 161.34 -69.21 157.46 C-69.22 156.11 -69.22 154.76 -69.22 153.41 C-69.23 146.35 -69.23 139.28 -69.23 132.21 C-69.23 125.67 -69.24 119.14 -69.26 112.6 C-69.27 106.94 -69.28 101.29 -69.28 95.63 C-69.28 92.27 -69.28 88.91 -69.29 85.56 C-69.43 33.46 -69.43 33.46 -53.46 15.37 C-39.42 2.08 -18.31 0.02 0 0 Z " fill="#C3162F" transform="translate(152.046875,68.8388671875)"/>
<path d="M0 0 C422.4 0 844.8 0 1280 0 C1280 126.72 1280 253.44 1280 384 C857.6 384 435.2 384 0 384 C0 257.28 0 130.56 0 0 Z M20.07 28.24 C6.78 45.63 7.7 67.14 7.73 87.89 C7.72 90.41 7.72 92.92 7.71 95.44 C7.7 101.54 7.7 107.64 7.7 113.74 C7.7 118.7 7.7 123.67 7.69 128.63 C7.69 129.34 7.69 130.05 7.69 130.78 C7.69 132.23 7.69 133.67 7.69 135.11 C7.68 148.6 7.68 162.09 7.69 175.58 C7.69 187.89 7.68 200.19 7.66 212.5 C7.64 225.17 7.63 237.85 7.64 250.52 C7.64 257.62 7.64 264.72 7.62 271.82 C7.61 278.5 7.61 285.18 7.62 291.86 C7.63 294.3 7.62 296.74 7.62 299.19 C7.54 322.08 8.43 341.59 24.62 359.06 C40.7 374.68 61.52 375.31 82.57 375.25 C84.55 375.26 86.53 375.26 88.51 375.26 C93.94 375.27 99.37 375.27 104.8 375.26 C110.71 375.26 116.63 375.27 122.54 375.27 C132.9 375.28 143.25 375.28 153.61 375.28 C164.72 375.27 175.84 375.28 186.95 375.28 C187.65 375.28 188.35 375.28 189.08 375.28 C191.94 375.28 194.8 375.29 197.66 375.29 C226.69 375.3 255.72 375.31 284.75 375.3 C288.76 375.3 292.77 375.3 296.78 375.3 C297.58 375.3 298.38 375.3 299.2 375.3 C316.86 375.3 334.52 375.3 352.17 375.31 C356.21 375.31 360.24 375.31 364.27 375.31 C365.89 375.31 367.51 375.31 369.13 375.31 C369.93 375.31 370.74 375.31 371.56 375.31 C373.19 375.31 374.81 375.31 376.43 375.31 C422.48 375.32 468.53 375.32 514.58 375.32 C515.43 375.32 516.28 375.32 517.16 375.32 C526.67 375.32 536.17 375.32 545.68 375.32 C546.54 375.32 547.4 375.32 548.28 375.32 C553.49 375.32 553.49 375.32 558.69 375.32 C613.59 375.31 668.49 375.32 723.39 375.34 C737.22 375.34 751.06 375.35 764.89 375.35 C765.74 375.35 766.59 375.35 767.47 375.35 C793.73 375.36 819.98 375.36 846.24 375.36 C847.06 375.36 847.89 375.36 848.73 375.36 C866.83 375.37 884.93 375.36 903.03 375.36 C909.51 375.36 915.98 375.36 922.46 375.36 C924.07 375.36 925.68 375.36 927.29 375.36 C952.95 375.36 978.61 375.37 1004.27 375.38 C1030.83 375.39 1057.4 375.39 1083.96 375.38 C1086.82 375.38 1089.67 375.38 1092.53 375.38 C1093.58 375.38 1093.58 375.38 1094.65 375.38 C1105.73 375.37 1116.81 375.38 1127.89 375.39 C1138.79 375.4 1149.69 375.39 1160.59 375.38 C1166.42 375.38 1172.25 375.37 1178.07 375.39 C1183.38 375.4 1188.69 375.39 1194 375.38 C1195.9 375.38 1197.8 375.38 1199.71 375.39 C1220.8 375.47 1240.09 373.45 1256 358 C1271.92 340.09 1271.3 318.57 1271.26 296.05 C1271.26 293.52 1271.27 291 1271.27 288.48 C1271.28 282.36 1271.28 276.25 1271.27 270.13 C1271.27 265.16 1271.27 260.18 1271.27 255.21 C1271.27 254.5 1271.27 253.79 1271.27 253.06 C1271.27 251.61 1271.27 250.17 1271.27 248.73 C1271.28 235.22 1271.27 221.71 1271.26 208.2 C1271.25 196.63 1271.25 185.06 1271.26 173.5 C1271.27 160.03 1271.28 146.57 1271.27 133.1 C1271.27 131.67 1271.27 130.23 1271.27 128.79 C1271.27 128.08 1271.27 127.38 1271.27 126.65 C1271.26 121.68 1271.27 116.72 1271.27 111.76 C1271.28 105.07 1271.27 98.38 1271.26 91.68 C1271.26 89.24 1271.26 86.79 1271.27 84.34 C1271.3 60.58 1269.59 40.26 1253.06 21.84 C1238.42 7.96 1218.99 7.55 1200.08 7.62 C1198.09 7.62 1196.1 7.61 1194.11 7.61 C1188.65 7.6 1183.19 7.6 1177.73 7.61 C1171.79 7.62 1165.84 7.61 1159.9 7.6 C1149.48 7.59 1139.07 7.59 1128.66 7.6 C1117.49 7.61 1106.32 7.61 1095.15 7.61 C1094.09 7.61 1094.09 7.61 1093.01 7.6 C1090.13 7.6 1087.26 7.6 1084.38 7.6 C1057.6 7.58 1030.82 7.58 1004.05 7.59 C1002.86 7.59 1002.86 7.59 1001.64 7.59 C1000.85 7.59 1000.05 7.59 999.24 7.59 C975.03 7.6 950.83 7.6 926.63 7.6 C925.01 7.6 923.39 7.6 921.77 7.6 C915.25 7.6 908.74 7.6 902.22 7.59 C884.01 7.59 865.8 7.59 847.59 7.59 C846.76 7.59 845.93 7.59 845.07 7.59 C818.65 7.59 792.23 7.59 765.81 7.6 C764.95 7.6 764.1 7.6 763.21 7.6 C749.3 7.6 735.38 7.61 721.47 7.61 C666.28 7.62 611.1 7.62 555.91 7.61 C542.01 7.61 528.1 7.6 514.19 7.6 C512.91 7.6 512.91 7.6 511.6 7.6 C485.2 7.59 458.81 7.59 432.41 7.59 C431.58 7.59 430.76 7.59 429.9 7.59 C411.71 7.59 393.52 7.59 375.33 7.6 C368.82 7.6 362.31 7.6 355.8 7.6 C354.18 7.6 352.56 7.6 350.94 7.6 C326.75 7.6 302.55 7.6 278.36 7.59 C277.56 7.59 276.77 7.59 275.95 7.59 C275.16 7.59 274.37 7.59 273.56 7.59 C246.86 7.58 220.15 7.59 193.45 7.6 C190.58 7.6 187.72 7.6 184.85 7.61 C184.14 7.61 183.44 7.61 182.71 7.61 C171.58 7.61 160.44 7.61 149.3 7.6 C138.34 7.59 127.39 7.6 116.43 7.61 C110.57 7.62 104.71 7.62 98.86 7.61 C93.52 7.6 88.19 7.6 82.86 7.62 C80.94 7.62 79.03 7.62 77.11 7.61 C55.11 7.53 35.25 10.6 20.07 28.24 Z " fill="#000102" transform="translate(0,0)"/>
<path d="M0 0 C0.7 0.14 1.4 0.28 2.12 0.43 C9.41 2.5 13.88 8.32 17.54 14.68 C24.58 29.23 24.99 45.67 20 61 C14.61 72.89 7.76 78.84 -4 84 C-7.9 85.3 -11.62 85.18 -15.69 85.19 C-16.47 85.2 -17.24 85.21 -18.04 85.22 C-23.36 85.24 -27.89 84.48 -33 83 C-32.99 84.49 -32.99 84.49 -32.98 86.01 C-32.97 89.69 -32.95 93.37 -32.95 97.04 C-32.94 98.64 -32.93 100.23 -32.92 101.83 C-32.91 104.11 -32.91 106.4 -32.9 108.68 C-32.9 109.4 -32.89 110.12 -32.89 110.86 C-32.89 112.57 -32.94 114.29 -33 116 C-35.12 118.12 -39.56 117.46 -42.5 117.62 C-43.3 117.68 -44.1 117.73 -44.92 117.78 C-46.94 117.9 -48.97 117.95 -51 118 C-52.6 116.4 -52.14 114.7 -52.16 112.48 C-52.17 111.5 -52.18 110.52 -52.19 109.51 C-52.19 108.43 -52.2 107.35 -52.21 106.24 C-52.22 105.11 -52.23 103.97 -52.24 102.81 C-52.27 99.05 -52.29 95.29 -52.32 91.53 C-52.34 88.93 -52.36 86.33 -52.38 83.73 C-52.43 77.57 -52.47 71.42 -52.52 65.26 C-52.57 58.26 -52.62 51.25 -52.68 44.25 C-52.79 29.83 -52.9 15.42 -53 1 C-47.39 1 -41.78 1 -36 1 C-33 7 -33 7 -33 9 C-32.35 8.53 -31.69 8.06 -31.02 7.57 C-21.27 0.93 -11.78 -2.51 0 0 Z " fill="#000102" transform="translate(567,205)"/>
<path d="M0 0 C9.64 10.26 12.85 23.73 12.57 37.43 C11.58 49.97 8.03 62.98 -1.68 71.6 C-9.74 77.29 -16.73 79.95 -26.56 79.85 C-27.71 79.86 -27.71 79.86 -28.88 79.88 C-34.12 79.86 -38.64 79.05 -43.68 77.6 C-43.68 79.09 -43.68 79.09 -43.67 80.61 C-43.65 84.29 -43.64 87.97 -43.63 91.65 C-43.62 93.24 -43.62 94.83 -43.61 96.43 C-43.6 98.71 -43.59 101 -43.59 103.29 C-43.58 104 -43.58 104.72 -43.57 105.46 C-43.57 107.17 -43.62 108.89 -43.68 110.6 C-45.8 112.72 -50.24 112.07 -53.18 112.23 C-53.98 112.28 -54.78 112.33 -55.6 112.38 C-57.63 112.5 -59.66 112.56 -61.68 112.6 C-63.29 111 -62.83 109.3 -62.84 107.08 C-62.85 106.1 -62.86 105.12 -62.87 104.12 C-62.88 103.03 -62.88 101.95 -62.89 100.84 C-62.9 99.71 -62.91 98.58 -62.92 97.41 C-62.95 93.65 -62.98 89.89 -63 86.13 C-63.02 83.53 -63.04 80.93 -63.06 78.33 C-63.11 72.18 -63.16 66.02 -63.2 59.87 C-63.25 52.86 -63.31 45.85 -63.36 38.85 C-63.47 24.43 -63.58 10.02 -63.68 -4.4 C-58.07 -4.4 -52.46 -4.4 -46.68 -4.4 C-45.36 -1.76 -44.04 0.88 -42.68 3.6 C-42.2 3.2 -41.71 2.8 -41.21 2.39 C-29.41 -6.94 -12.54 -10.42 0 0 Z " fill="#000102" transform="translate(664.68359375,210.3984375)"/>
<path d="M0 0 C5.94 0 11.88 0 18 0 C21.67 7.09 24.94 14.12 27.73 21.6 C29.06 25.15 30.46 28.67 31.88 32.19 C34.15 37.84 36.37 43.51 38.56 49.19 C40.84 55.06 43.18 60.9 45.63 66.7 C48.84 74.43 51.91 82.22 55 90 C55.34 90.87 55.69 91.74 56.04 92.63 C57.03 95.13 58.02 97.63 59 100.12 C59.3 100.89 59.61 101.65 59.92 102.44 C62 107.77 62 107.77 62 110 C58.88 110.03 55.75 110.05 52.62 110.06 C51.74 110.07 50.85 110.08 49.93 110.09 C49.08 110.09 48.23 110.09 47.35 110.1 C46.17 110.11 46.17 110.11 44.97 110.11 C43 110 43 110 41 109 C40.14 107.12 39.38 105.19 38.65 103.25 C38.21 102.08 37.77 100.92 37.32 99.72 C36.86 98.49 36.41 97.26 35.94 96 C35.03 93.58 34.12 91.17 33.21 88.75 C32.81 87.67 32.41 86.59 32 85.48 C31.23 83.1 31.23 83.1 30 82 C28.65 81.88 27.29 81.82 25.94 81.79 C24.65 81.76 24.65 81.76 23.33 81.73 C22.4 81.72 21.46 81.7 20.5 81.68 C19.07 81.65 19.07 81.65 17.61 81.62 C14.55 81.56 11.49 81.5 8.44 81.44 C6.37 81.39 4.3 81.35 2.24 81.31 C-2.84 81.2 -7.92 81.1 -13 81 C-13.2 81.67 -13.4 82.34 -13.6 83.02 C-13.87 83.91 -14.13 84.8 -14.4 85.71 C-14.66 86.59 -14.93 87.46 -15.19 88.36 C-16.39 92.27 -17.71 96.14 -19.06 100 C-19.45 101.12 -19.45 101.12 -19.84 102.27 C-21.76 107.76 -21.76 107.76 -24 110 C-25.88 110.23 -25.88 110.23 -28.13 110.2 C-28.94 110.19 -29.74 110.18 -30.57 110.18 C-31.42 110.16 -32.26 110.14 -33.12 110.12 C-33.97 110.12 -34.82 110.11 -35.7 110.1 C-37.8 110.07 -39.9 110.04 -42 110 C-42.33 109.34 -42.66 108.68 -43 108 C-42.05 105.4 -41.04 102.91 -39.94 100.38 C-39.28 98.82 -38.62 97.27 -37.97 95.71 C-37.64 94.93 -37.3 94.14 -36.96 93.32 C-35.54 89.89 -34.23 86.42 -32.94 82.94 C-32.7 82.29 -32.45 81.63 -32.2 80.96 C-31.47 78.98 -30.73 76.99 -30 75 C-28.98 72.25 -27.96 69.5 -26.94 66.75 C-26.49 65.55 -26.05 64.35 -25.59 63.11 C-24.39 59.95 -23.1 56.83 -21.79 53.71 C-19.58 48.45 -17.46 43.15 -15.37 37.83 C-15.05 37.02 -14.73 36.21 -14.4 35.37 C-13.08 32 -11.76 28.63 -10.44 25.26 C-9.46 22.76 -8.48 20.26 -7.5 17.77 C-7.2 17.02 -6.91 16.28 -6.61 15.51 C-4.55 10.27 -2.31 5.13 0 0 Z " fill="#000102" transform="translate(443,178)"/>
<path d="M0 0 C0.99 0.99 0.99 0.99 2 2 C1.69 7.26 0.2 11.3 -2 16 C-2.54 15.82 -3.07 15.64 -3.62 15.45 C-19.41 10.39 -34.71 7.33 -50.34 14.56 C-58.51 18.99 -63 25.01 -65.94 33.81 C-69.97 48.08 -69.81 60.72 -64.81 74.88 C-60.56 82.2 -54.04 88 -45.95 90.68 C-36.36 93.17 -23.01 93.51 -14 89 C-13.67 82.07 -13.34 75.14 -13 68 C-20.92 67.67 -28.84 67.34 -37 67 C-39.24 62.52 -38 57.01 -38 52 C-23.81 52 -9.62 52 5 52 C6.18 54.35 6.12 55.74 6.11 58.36 C6.11 59.71 6.11 59.71 6.11 61.09 C6.11 62.06 6.1 63.04 6.1 64.04 C6.1 65.04 6.09 66.03 6.09 67.06 C6.09 70.25 6.08 73.44 6.06 76.62 C6.06 78.78 6.05 80.94 6.05 83.1 C6.04 88.4 6.02 93.7 6 99 C4.75 99.64 3.5 100.28 2.24 100.92 C1.54 101.28 0.85 101.64 0.13 102 C-3.06 103.5 -6.21 104.32 -9.62 105.19 C-10.88 105.51 -12.13 105.83 -13.41 106.17 C-32.2 110.53 -51.28 109.38 -67.8 99.09 C-79.68 91.34 -85.57 80.93 -88.5 67.04 C-91.51 48.78 -89.65 30.54 -79 15 C-69.84 2.88 -56.83 -3.05 -42.19 -5.69 C-27.81 -7.07 -13.38 -5.66 0 0 Z " fill="#000102" transform="translate(776,182)"/>
<path d="M0 0 C8.69 11.03 10.59 20.39 10.73 34.19 C10.75 35.44 10.77 36.7 10.79 37.99 C10.83 41.29 10.88 44.6 10.91 47.91 C10.95 51.3 11 54.68 11.05 58.07 C11.15 64.69 11.24 71.31 11.31 77.94 C8.52 77.96 5.73 77.98 2.94 78 C2.14 78.01 1.35 78.02 0.53 78.03 C-5.46 78.05 -5.46 78.05 -7.69 76.94 C-8.31 73.88 -8.31 73.88 -8.69 70.94 C-12.16 72.6 -15.29 74.59 -18.49 76.72 C-26.27 81.03 -35.83 81.36 -44.38 79.29 C-50.61 76.76 -57.17 72.46 -59.88 66.16 C-62.06 57.43 -62.02 47.89 -57.36 40.02 C-51.85 33.14 -44.11 30.51 -35.69 28.94 C-30.95 28.61 -26.25 28.65 -21.5 28.75 C-19.64 28.77 -19.64 28.77 -17.75 28.79 C-14.73 28.83 -11.71 28.88 -8.69 28.94 C-8.97 27.19 -9.27 25.44 -9.57 23.69 C-9.81 22.23 -9.81 22.23 -10.06 20.74 C-10.99 16.6 -12.27 13.54 -15.69 10.94 C-26.72 6.4 -39.91 10.21 -50.69 13.94 C-53.06 11.57 -53.27 10.24 -53.94 7 C-54.13 6.12 -54.32 5.25 -54.52 4.35 C-54.69 1.94 -54.69 1.94 -52.69 -1.06 C-50.16 -1.92 -47.78 -2.6 -45.19 -3.19 C-44.46 -3.36 -43.73 -3.53 -42.98 -3.71 C-29.51 -6.78 -11.64 -8.94 0 0 Z " fill="#000102" transform="translate(856.6875,210.0625)"/>
<path d="M0 0 C8.75 9.99 12.19 22.05 11.93 35.15 C11.73 36.98 11.73 36.98 10.73 37.98 C9.07 38.07 7.41 38.09 5.75 38.09 C4.69 38.09 3.63 38.09 2.54 38.09 C0.81 38.08 0.81 38.08 -0.96 38.07 C-2.14 38.07 -3.31 38.07 -4.52 38.07 C-8.29 38.06 -12.06 38.05 -15.83 38.04 C-18.38 38.03 -20.93 38.03 -23.48 38.03 C-29.74 38.01 -36.01 38 -42.27 37.98 C-41.87 40.21 -41.45 42.44 -41.02 44.66 C-40.79 45.91 -40.56 47.15 -40.32 48.43 C-38.76 53.71 -35.92 57.09 -31.14 59.79 C-20.28 64.88 -6.24 62.59 4.73 58.98 C7.52 63.33 8.63 66.97 9.73 71.98 C8.26 72.61 6.78 73.23 5.29 73.85 C4.47 74.2 3.65 74.55 2.8 74.91 C-10.25 79.46 -26.82 80.49 -39.76 75.24 C-48.69 70.75 -55.66 65.48 -59.64 56.1 C-63.64 42.76 -63.38 25.54 -57.82 12.73 C-55.46 8.55 -52.79 5.22 -49.27 1.98 C-48.34 1.07 -47.41 0.16 -46.46 -0.77 C-33.23 -10.11 -12.43 -11.55 0 0 Z " fill="#000102" transform="translate(1031.26953125,212.0234375)"/>
<path d="M0 0 C6.27 0 12.54 0 19 0 C22.78 7.89 25.48 16.05 28.21 24.35 C28.99 26.73 29.79 29.12 30.58 31.5 C33.5 40.3 36.32 49.12 39 58 C39.66 58 40.32 58 41 58 C41.16 57.48 41.33 56.96 41.5 56.42 C43.23 50.94 44.97 45.45 46.71 39.97 C47.35 37.93 48 35.89 48.64 33.85 C52.23 22.49 55.86 11.17 60 0 C62.79 -0.03 65.58 -0.05 68.38 -0.06 C69.17 -0.07 69.96 -0.08 70.78 -0.09 C76.77 -0.11 76.77 -0.11 79 1 C76.51 11.53 72.62 21.56 68.88 31.69 C68.2 33.53 67.52 35.37 66.84 37.21 C62.87 47.99 58.88 58.76 54.79 69.49 C53.07 74.04 51.47 78.6 49.96 83.22 C45.61 96.4 38.75 108.56 26.08 115.12 C21.47 117.06 17.15 117.18 12.19 117.19 C11.5 117.2 10.81 117.21 10.11 117.22 C5.38 117.24 1.45 116.63 -3 115 C-4.45 112.1 -3.45 110.44 -2.56 107.38 C-2.28 106.37 -1.99 105.37 -1.69 104.34 C-1.46 103.57 -1.24 102.79 -1 102 C2.38 100.94 5.29 101.02 8.81 101.19 C13.26 101.19 16.74 101.15 20.46 98.6 C24.44 94.46 27.8 88.95 28.19 83.17 C27.99 79.84 27.3 77.52 26.06 74.43 C25.64 73.38 25.23 72.33 24.8 71.25 C24.35 70.13 23.9 69.02 23.44 67.88 C22.51 65.52 21.58 63.16 20.66 60.81 C20.2 59.65 19.74 58.49 19.27 57.29 C17.56 52.87 15.98 48.42 14.44 43.94 C11.74 36.12 8.99 28.34 6.19 20.56 C5.8 19.49 5.42 18.42 5.02 17.31 C4.66 16.3 4.29 15.29 3.92 14.25 C3.43 12.91 3.43 12.91 2.94 11.55 C2.3 9.82 1.61 8.11 0.88 6.42 C0 4 0 4 0 0 Z " fill="#000102" transform="translate(1116,206)"/>
<path d="M0 0 C7.19 6.08 11.47 13.3 12.34 22.69 C12.59 32.64 11.38 40.07 5 48 C-1.19 53.88 -8.45 56.96 -17 57.38 C-25.77 56.95 -32.46 53.66 -39 48 C-39.76 47.42 -40.53 46.84 -41.31 46.25 C-46.45 39.4 -46.92 30.24 -46 22 C-44.33 13.99 -41.46 7.24 -35 2 C-24.96 -3.82 -10.41 -6.19 0 0 Z " fill="#000102" transform="translate(912,72)"/>
<path d="M0 0 C7.68 7.89 9.64 16.31 9.54 26.98 C9.32 36.24 6.9 41.5 0.5 48.33 C-5.68 53.77 -13.47 55.66 -21.58 55.53 C-30.07 54.69 -37.36 50.4 -43.56 44.75 C-48.82 37.79 -49.29 28.47 -48.25 20.13 C-46.9 12.58 -44.79 6.36 -38.75 1.31 C-26.65 -6.06 -12.45 -7.64 0 0 Z " fill="#000102" transform="translate(627.75,73.6875)"/>
<path d="M0 0 C1.11 -0 1.11 -0 2.24 -0.01 C4.12 0.12 4.12 0.12 6.12 1.12 C6.12 34.45 6.12 67.78 6.12 102.12 C10.39 103.83 13.64 104.6 18.12 105.12 C19.58 109.66 20.36 113.31 20.12 118.12 C13.72 121.15 7.06 120.93 0.12 120.12 C-4.84 118.31 -8.56 116.14 -11.48 111.66 C-13.36 106.89 -13.27 102.71 -13.22 97.62 C-13.22 96.58 -13.22 95.53 -13.22 94.46 C-13.21 91.02 -13.19 87.57 -13.17 84.13 C-13.16 81.74 -13.16 79.35 -13.16 76.96 C-13.14 70.68 -13.11 64.4 -13.08 58.11 C-13.05 51.7 -13.04 45.28 -13.02 38.87 C-12.99 26.29 -12.94 13.71 -12.88 1.12 C-4 -0.01 -4 -0.01 0 0 Z " fill="#000102" transform="translate(943.875,169.875)"/>
<path d="M0 0 C2.18 2.18 1.19 7.35 1.21 10.39 C1.22 11.37 1.23 12.36 1.24 13.37 C1.27 16.64 1.29 19.92 1.32 23.19 C1.34 25.45 1.36 27.72 1.38 29.98 C1.43 35.95 1.48 41.92 1.53 47.89 C1.58 53.97 1.64 60.06 1.69 66.15 C1.8 78.1 1.9 90.05 2 102 C5.02 103.32 6.84 104 10.19 103.94 C11.12 103.96 12.04 103.98 13 104 C15.19 107.28 15.35 108.83 15.62 112.69 C15.7 113.68 15.77 114.68 15.85 115.7 C15.9 116.46 15.95 117.22 16 118 C9.18 121.24 0.29 121.41 -6.88 119.05 C-11.15 116.82 -14.22 114.61 -16 110 C-17.8 103.63 -18.28 97.61 -18.24 91.01 C-18.25 89.58 -18.25 89.58 -18.25 88.12 C-18.25 85 -18.24 81.88 -18.23 78.75 C-18.23 76.57 -18.23 74.39 -18.23 72.22 C-18.23 67.66 -18.22 63.11 -18.21 58.56 C-18.19 52.72 -18.18 46.87 -18.19 41.03 C-18.19 36.54 -18.18 32.05 -18.17 27.55 C-18.17 25.4 -18.17 23.24 -18.17 21.09 C-18.16 18.08 -18.16 15.08 -18.15 12.08 C-18.15 11.19 -18.15 10.29 -18.15 9.37 C-18.11 3.23 -18.11 3.23 -17 1 C-11.4 0 -5.68 -0.42 0 0 Z " fill="#000102" transform="translate(901,170)"/>
<path d="M0 0 C1 1 1 1 1.19 4.56 C1.15 8.96 0.2 12.78 -1 17 C-1.64 16.97 -2.28 16.93 -2.94 16.89 C-12.15 16.61 -17.5 19.19 -24.3 25.28 C-27.55 28.57 -28.25 30.71 -28.32 35.21 C-28.34 36.27 -28.36 37.33 -28.38 38.42 C-28.4 40.14 -28.4 40.14 -28.41 41.89 C-28.43 43.06 -28.45 44.23 -28.47 45.44 C-28.53 49.19 -28.58 52.94 -28.62 56.69 C-28.66 59.23 -28.7 61.77 -28.74 64.31 C-28.84 70.54 -28.92 76.77 -29 83 C-31.98 83.03 -34.96 83.05 -37.94 83.06 C-38.79 83.07 -39.64 83.08 -40.51 83.09 C-41.32 83.09 -42.13 83.09 -42.96 83.1 C-43.71 83.1 -44.46 83.11 -45.23 83.11 C-47 83 -47 83 -48 82 C-48.13 79.48 -48.19 76.98 -48.21 74.45 C-48.22 73.66 -48.23 72.87 -48.24 72.06 C-48.27 69.43 -48.29 66.81 -48.32 64.18 C-48.34 62.37 -48.36 60.55 -48.38 58.74 C-48.43 53.95 -48.48 49.17 -48.53 44.38 C-48.58 39.5 -48.64 34.62 -48.69 29.74 C-48.8 20.16 -48.9 10.58 -49 1 C-43.39 1 -37.78 1 -32 1 C-30.4 5 -29.14 8.86 -28 13 C-27.42 12.31 -26.84 11.63 -26.24 10.92 C-25.46 10.02 -24.68 9.12 -23.88 8.19 C-23.11 7.29 -22.34 6.4 -21.55 5.48 C-15.01 -0.87 -8.52 -1.42 0 0 Z " fill="#000102" transform="translate(1106,205)"/>
<path d="M0 0 C4.23 3.95 7.44 10.26 7.93 16.05 C8.47 37.37 8.47 37.37 3.75 44.94 C3.17 45.89 2.6 46.83 2 47.81 C-2.94 52.48 -7.5 54.19 -14.31 54.38 C-19.31 54.21 -24.52 53.67 -28.25 49.94 C-28.38 48.59 -28.45 47.23 -28.49 45.88 C-28.52 45.02 -28.54 44.16 -28.57 43.27 C-28.65 39.31 -28.72 35.35 -28.76 31.39 C-28.8 29.31 -28.84 27.22 -28.91 25.13 C-29 22.13 -29.04 19.12 -29.07 16.11 C-29.1 15.18 -29.14 14.26 -29.18 13.3 C-29.16 6.97 -29.16 6.97 -26.57 4.04 C-18.59 -2.14 -9.15 -5.81 0 0 Z " fill="#FCFDFF" transform="translate(562.25,222.0625)"/>
<path d="M0 0 C8.47 9.52 8.8 19.3 8.39 31.44 C7.88 40 4.58 45.88 -1.74 51.58 C-7.11 55.58 -13.3 55.24 -19.74 54.58 C-22.68 53.76 -25.53 52.79 -27.74 50.58 C-27.87 49.23 -27.94 47.88 -27.98 46.52 C-28 45.66 -28.03 44.8 -28.06 43.91 C-28.14 39.96 -28.21 36 -28.25 32.04 C-28.28 29.95 -28.33 27.86 -28.4 25.78 C-28.49 22.77 -28.53 19.77 -28.55 16.76 C-28.59 15.83 -28.63 14.9 -28.67 13.94 C-28.65 7.6 -28.65 7.6 -26.04 4.69 C-19.24 -0.54 -7.84 -6.39 0 0 Z " fill="#FCFDFF" transform="translate(648.73828125,221.41796875)"/>
<path d="M0 0 C4.19 -0.09 8.37 -0.14 12.56 -0.19 C13.74 -0.21 14.93 -0.24 16.14 -0.26 C22.53 -0.32 27.43 -0.27 33 3 C36.83 7.13 37.77 11.07 38.09 16.54 C37.92 20.98 36.61 24.32 33.53 27.54 C29.59 31 29.59 31 27 31 C29.18 36.67 32.08 41.27 35.62 46.19 C36.62 47.57 37.62 48.96 38.6 50.36 C39.04 50.96 39.47 51.57 39.92 52.19 C41.07 54.12 41.57 55.81 42 58 C40.61 58.11 39.21 58.19 37.81 58.25 C37.04 58.3 36.26 58.34 35.46 58.39 C31.37 57.74 29.11 55.5 26.68 52.22 C25.32 50.15 24.03 48.06 22.75 45.94 C22.3 45.22 21.86 44.5 21.4 43.76 C19.6 40.83 18.09 38.27 17 35 C14.69 35 12.38 35 10 35 C9.67 42.59 9.34 50.18 9 58 C6.36 58 3.72 58 1 58 C-1 56 -1 56 -1.25 53.72 C-1.25 52.77 -1.24 51.83 -1.24 50.85 C-1.25 49.77 -1.25 48.7 -1.25 47.59 C-1.25 46.43 -1.24 45.26 -1.23 44.06 C-1.23 42.87 -1.23 41.68 -1.23 40.45 C-1.23 37.93 -1.22 35.41 -1.21 32.89 C-1.19 29.02 -1.19 25.14 -1.19 21.27 C-1.18 18.83 -1.17 16.38 -1.17 13.94 C-1.17 12.77 -1.17 11.61 -1.16 10.41 C-1.16 9.33 -1.15 8.26 -1.15 7.15 C-1.14 6.2 -1.14 5.25 -1.13 4.28 C-1 2 -1 2 0 0 Z " fill="#000102" transform="translate(649,70)"/>
<path d="M0 0 C1.92 -0.11 3.84 -0.2 5.76 -0.26 C6.83 -0.31 7.9 -0.36 9 -0.41 C12 0 12 0 14.21 1.95 C16.07 4.52 17.57 7.14 19.06 9.94 C20.23 11.95 21.41 13.96 22.58 15.98 C23.15 16.99 23.72 18 24.31 19.04 C26.8 23.4 29.51 27.61 32.25 31.81 C32.7 32.53 33.16 33.24 33.63 33.98 C35.75 37.56 35.75 37.56 39 40 C39.33 26.8 39.66 13.6 40 0 C42.64 0 45.28 0 48 0 C49 1 49 1 49.12 3.28 C49.12 4.29 49.12 5.3 49.11 6.35 C49.11 7.49 49.11 8.63 49.11 9.8 C49.11 11.05 49.1 12.29 49.1 13.57 C49.1 14.83 49.09 16.09 49.09 17.4 C49.09 20.76 49.08 24.13 49.07 27.49 C49.06 30.92 49.05 34.36 49.05 37.79 C49.04 44.52 49.02 51.26 49 58 C47.39 58.05 45.78 58.08 44.17 58.11 C43.27 58.13 42.37 58.16 41.45 58.18 C39 58 39 58 36.33 56.19 C32.95 51.56 29.78 46.83 26.69 42 C26.03 40.98 25.36 39.95 24.68 38.9 C20.02 31.66 15.43 24.38 11 17 C9.57 18.2 9.57 18.2 9.9 21.68 C9.91 23.32 9.92 24.96 9.94 26.59 C9.94 27.46 9.95 28.32 9.95 29.21 C9.96 31.97 9.98 34.74 10 37.5 C10.03 41.14 10.05 44.77 10.06 48.41 C10.07 49.25 10.08 50.1 10.09 50.97 C10.1 52.98 10.05 54.99 10 57 C9 58 9 58 5.56 58.19 C2 58 2 58 0 56 C-0.24 53.63 -0.24 53.63 -0.23 50.63 C-0.23 49.51 -0.23 48.39 -0.23 47.24 C-0.22 46.02 -0.21 44.81 -0.2 43.55 C-0.19 42.31 -0.19 41.07 -0.19 39.8 C-0.18 36.5 -0.16 33.2 -0.14 29.9 C-0.12 26.54 -0.11 23.17 -0.1 19.81 C-0.08 13.21 -0.04 6.6 0 0 Z " fill="#000102" transform="translate(935,70)"/>
<path d="M0 0 C4.02 -0.09 8.04 -0.14 12.06 -0.19 C13.76 -0.23 13.76 -0.23 15.5 -0.26 C21.79 -0.32 26.5 -0.17 32 3 C36.04 7.16 38.74 11.63 39.38 17.44 C38.56 25.19 35.73 28.72 29.94 33.62 C24.65 37.39 17.2 36.6 11 37 C10.67 43.93 10.34 50.86 10 58 C7.36 58 4.72 58 2 58 C0 56 0 56 -0.24 53.63 C-0.24 52.64 -0.23 51.65 -0.23 50.63 C-0.23 49.51 -0.23 48.39 -0.23 47.24 C-0.22 46.02 -0.21 44.81 -0.2 43.55 C-0.19 42.31 -0.19 41.07 -0.19 39.8 C-0.18 36.5 -0.16 33.2 -0.14 29.9 C-0.12 26.54 -0.11 23.17 -0.1 19.81 C-0.08 13.21 -0.04 6.6 0 0 Z " fill="#000102" transform="translate(495,70)"/>
<path d="M0 0 C5.78 6.53 8.52 13.66 8.31 22.34 C7.6 28.41 5.6 34.03 0.88 38.06 C-4.61 41.76 -9.48 41.73 -16 41 C-21.13 39.01 -25.08 35.67 -28 31 C-30.07 22.72 -29.99 13.68 -26 6 C-19.94 -2.33 -9.2 -4.75 0 0 Z " fill="#FCFDFF" transform="translate(619,79)"/>
<path d="M0 0 C5.33 4.66 7.94 10.03 9 17 C9.26 24.84 7.77 31.57 2.64 37.6 C-1.92 41.65 -6.94 41.78 -12.83 41.56 C-18.6 40.54 -21.97 37.4 -25.65 33.05 C-29.28 27.54 -28.52 20.32 -28 14 C-26.78 9.04 -25.16 5.22 -21.62 1.5 C-15.06 -2.25 -6.87 -4.16 0 0 Z " fill="#FCFDFF" transform="translate(905,79)"/>
<path d="M0 0 C3.48 -0.56 6.54 -0.76 10 0 C12.75 2.6 14.31 5.64 16 9 C18.25 13.72 18.25 13.72 22 17 C22 17.66 22 18.32 22 19 C22.66 19 23.32 19 24 19 C24.25 18.33 24.49 17.65 24.75 16.96 C27.36 10.8 30.65 5.08 35 0 C38.28 -1.27 40.71 -1.22 44 0 C44.66 0.66 45.32 1.32 46 2 C45.35 2.97 44.7 3.93 44.02 4.93 C41.33 8.94 38.66 12.97 36 17 C34.99 18.53 34.99 18.53 33.96 20.08 C33.42 20.94 32.87 21.8 32.31 22.69 C31.83 23.43 31.36 24.18 30.86 24.95 C29.77 27.55 30.1 28.36 31 31 C31.98 32.71 33.01 34.38 34.09 36.03 C34.71 36.98 35.33 37.94 35.97 38.93 C36.62 39.92 37.27 40.91 37.94 41.94 C39.22 43.9 40.5 45.87 41.78 47.84 C42.35 48.71 42.92 49.58 43.5 50.48 C44.96 52.93 46.02 55.33 47 58 C43.7 58 40.4 58 37 58 C37 57.34 37 56.68 37 56 C36.44 55.82 35.88 55.65 35.3 55.46 C31.82 53.25 30.28 50.08 28.25 46.56 C27.63 45.54 27.63 45.54 27 44.5 C24 39.4 24 39.4 24 36 C20.21 39.39 17.89 43.21 15.38 47.56 C11.09 54.86 11.09 54.86 9 58 C6.84 58.29 6.84 58.29 4.38 58.19 C3.56 58.16 2.74 58.13 1.9 58.11 C1.27 58.07 0.65 58.04 0 58 C-0.5 56.52 -0.5 56.52 -1 55 C0.43 52.35 1.91 49.89 3.56 47.38 C4.02 46.66 4.48 45.94 4.95 45.2 C7.86 40.65 10.88 36.2 14.14 31.89 C15.35 29.22 14.78 27.81 14 25 C12.61 22.4 12.61 22.4 10.84 19.8 C9.9 18.36 9.9 18.36 8.94 16.89 C8.28 15.89 7.62 14.9 6.94 13.88 C5.63 11.9 4.32 9.92 3.03 7.93 C2.45 7.06 1.87 6.18 1.27 5.28 C0 3 0 3 0 0 Z " fill="#000102" transform="translate(440,70)"/>
<path d="M0 0 C4.68 -0.02 9.36 -0.04 14.04 -0.05 C15.64 -0.06 17.23 -0.07 18.83 -0.08 C21.11 -0.09 23.4 -0.09 25.68 -0.1 C26.4 -0.1 27.12 -0.11 27.86 -0.11 C29.57 -0.11 31.29 -0.06 33 0 C34 1 34 1 34 8 C26.41 8 18.82 8 11 8 C11.33 13.28 11.66 18.56 12 24 C13.36 23.99 14.72 23.98 16.12 23.96 C17.89 23.96 19.67 23.95 21.44 23.94 C22.78 23.92 22.78 23.92 24.16 23.91 C25.01 23.91 25.87 23.91 26.75 23.9 C27.93 23.89 27.93 23.89 29.14 23.89 C31 24 31 24 32 25 C32 27.31 32 29.62 32 32 C25.07 32 18.14 32 11 32 C11.33 37.61 11.66 43.22 12 49 C18.93 49 25.86 49 33 49 C35.09 53.18 35.17 53.8 34 58 C29.48 58.05 24.96 58.09 20.44 58.11 C18.9 58.12 17.36 58.13 15.82 58.15 C13.61 58.18 11.4 58.19 9.2 58.2 C8.51 58.21 7.82 58.22 7.11 58.23 C5.4 58.23 3.7 58.12 2 58 C0 56 0 56 -0.24 53.63 C-0.24 52.64 -0.23 51.65 -0.23 50.63 C-0.23 49.51 -0.23 48.39 -0.23 47.24 C-0.22 46.02 -0.21 44.81 -0.2 43.55 C-0.19 42.31 -0.19 41.07 -0.19 39.8 C-0.18 36.5 -0.16 33.2 -0.14 29.9 C-0.12 26.54 -0.11 23.17 -0.1 19.81 C-0.08 13.21 -0.04 6.6 0 0 Z " fill="#000102" transform="translate(399,70)"/>
<path d="M0 0 C4.68 -0.02 9.36 -0.04 14.04 -0.05 C15.64 -0.06 17.23 -0.07 18.83 -0.08 C21.11 -0.09 23.4 -0.09 25.68 -0.1 C26.4 -0.1 27.12 -0.11 27.86 -0.11 C29.57 -0.11 31.29 -0.06 33 0 C34 1 34 1 34 8 C26.41 8 18.82 8 11 8 C10.98 10.29 10.96 12.58 10.94 14.94 C10.93 16.23 10.91 17.51 10.9 18.84 C10.63 21.86 10.63 21.86 12 23 C13.4 23.14 14.81 23.23 16.22 23.28 C17.07 23.32 17.92 23.36 18.79 23.39 C19.69 23.43 20.58 23.46 21.5 23.5 C23.26 23.57 25.02 23.64 26.78 23.72 C27.57 23.75 28.35 23.78 29.16 23.81 C31 24 31 24 32 25 C32 27.31 32 29.62 32 32 C25.07 32 18.14 32 11 32 C10.97 35.68 10.97 35.68 10.94 39.44 C10.92 40.6 10.92 40.6 10.91 41.78 C10.9 43.52 10.95 45.26 11 47 C12.61 48.61 14.4 48.17 16.62 48.21 C18.02 48.25 18.02 48.25 19.46 48.3 C21.44 48.35 23.42 48.39 25.41 48.43 C26.81 48.48 26.81 48.48 28.25 48.52 C29.11 48.54 29.97 48.56 30.86 48.58 C31.57 48.72 32.27 48.86 33 49 C33.66 49.99 34.32 50.98 35 52 C34.12 55.19 34.12 55.19 33 58 C28.62 58.05 24.24 58.09 19.87 58.11 C18.38 58.12 16.89 58.13 15.4 58.15 C13.26 58.18 11.12 58.19 8.98 58.2 C7.69 58.21 6.4 58.22 5.07 58.23 C2 58 2 58 0 56 C-0.24 53.63 -0.24 53.63 -0.23 50.63 C-0.23 49.51 -0.23 48.39 -0.23 47.24 C-0.22 46.02 -0.21 44.81 -0.2 43.55 C-0.19 42.31 -0.19 41.07 -0.19 39.8 C-0.18 36.5 -0.16 33.2 -0.14 29.9 C-0.12 26.54 -0.11 23.17 -0.1 19.81 C-0.08 13.21 -0.04 6.6 0 0 Z " fill="#000102" transform="translate(700,70)"/>
<path d="M0 0 C6.09 -0.02 12.17 -0.04 18.26 -0.05 C20.33 -0.06 22.41 -0.07 24.48 -0.08 C27.45 -0.09 30.42 -0.09 33.4 -0.1 C34.33 -0.1 35.26 -0.11 36.22 -0.11 C37.08 -0.11 37.94 -0.11 38.83 -0.11 C39.59 -0.12 40.34 -0.12 41.13 -0.12 C43 0 43 0 45 1 C44.67 3.31 44.34 5.62 44 8 C42.39 8.09 42.39 8.09 40.75 8.18 C39.36 8.27 37.96 8.35 36.56 8.44 C35.5 8.5 35.5 8.5 34.42 8.56 C30.91 8.48 30.91 8.48 28 10 C27.88 11.5 27.82 13.01 27.79 14.52 C27.77 15.48 27.75 16.44 27.73 17.43 C27.71 19 27.71 19 27.68 20.6 C27.66 21.66 27.64 22.73 27.62 23.82 C27.56 27.24 27.5 30.65 27.44 34.06 C27.39 36.37 27.35 38.68 27.31 40.99 C27.2 46.66 27.1 52.33 27 58 C24.03 58 21.06 58 18 58 C16.82 55.65 16.85 54.19 16.81 51.57 C16.79 50.65 16.78 49.73 16.76 48.79 C16.75 47.79 16.73 46.8 16.72 45.78 C16.69 44.25 16.69 44.25 16.66 42.7 C16.58 38.34 16.52 33.98 16.45 29.62 C16.4 26.44 16.34 23.27 16.28 20.09 C16.27 19.1 16.25 18.1 16.24 17.08 C16.22 16.16 16.21 15.25 16.19 14.3 C16.18 13.5 16.16 12.69 16.15 11.85 C16.2 9.98 16.2 9.98 15 9 C12.47 8.76 9.97 8.58 7.44 8.44 C6.73 8.39 6.02 8.35 5.28 8.31 C3.52 8.2 1.76 8.1 0 8 C-0.8 4.71 -1.1 3.29 0 0 Z " fill="#000102" transform="translate(791,70)"/>
<path d="M0 0 C1.46 -0.03 2.92 -0.05 4.38 -0.06 C5.19 -0.07 6 -0.09 6.84 -0.1 C9 0 9 0 11 1 C11.33 16.84 11.66 32.68 12 49 C18.93 49 25.86 49 33 49 C34 50 34 50 34.12 53.5 C34 57 34 57 33 58 C28.6 58.22 24.19 58.19 19.79 58.19 C17.58 58.19 15.36 58.21 13.15 58.22 C11.74 58.23 10.34 58.23 8.94 58.23 C7.66 58.23 6.38 58.24 5.06 58.24 C2 58 2 58 0 56 C-0.24 53.63 -0.24 53.63 -0.23 50.63 C-0.23 49.51 -0.23 48.39 -0.23 47.24 C-0.22 46.02 -0.21 44.81 -0.2 43.55 C-0.19 42.31 -0.19 41.07 -0.19 39.8 C-0.18 36.5 -0.16 33.2 -0.14 29.9 C-0.12 26.54 -0.11 23.17 -0.1 19.81 C-0.08 13.21 -0.04 6.6 0 0 Z " fill="#010203" transform="translate(543,70)"/>
<path d="M0 0 C2 1 2 1 2.93 3.37 C3.24 4.38 3.55 5.39 3.88 6.44 C5.08 10.2 6.31 13.91 7.81 17.56 C9.9 22.67 11.83 27.83 13.75 33 C14.07 33.85 14.39 34.7 14.71 35.58 C15.16 36.78 15.16 36.78 15.61 38 C15.88 38.72 16.14 39.44 16.42 40.19 C17 42 17 42 17 44 C12.76 44.07 8.53 44.13 4.29 44.16 C2.85 44.18 1.41 44.2 -0.03 44.23 C-2.1 44.26 -4.17 44.28 -6.24 44.29 C-7.49 44.31 -8.73 44.32 -10.02 44.34 C-11.49 44.17 -11.49 44.17 -13 44 C-13.66 43.01 -14.32 42.02 -15 41 C-14.5 39.03 -14.5 39.03 -13.45 36.71 C-11.63 32.52 -9.99 28.31 -8.46 24 C-8.02 22.79 -7.59 21.57 -7.14 20.31 C-6.7 19.08 -6.26 17.84 -5.81 16.56 C-5.36 15.28 -4.9 14.01 -4.45 12.73 C-2.18 6.38 -2.18 6.38 0 0 Z " fill="#FAFBFD" transform="translate(451,200)"/>
<path d="M0 0 C2 0.69 2 0.69 4 2.69 C5.14 5.89 6.15 9.11 7.14 12.37 C7.71 14.16 8.35 15.92 9 17.69 C9.66 18.02 10.32 18.35 11 18.69 C11.13 17.99 11.25 17.29 11.38 16.57 C12.05 13.47 12.94 10.52 13.94 7.5 C14.28 6.45 14.62 5.41 14.96 4.33 C16 1.69 16 1.69 18 -0.31 C18.99 -0.31 19.98 -0.31 21 -0.31 C21 0.35 21 1.01 21 1.69 C21.66 1.69 22.32 1.69 23 1.69 C23.34 2.75 23.68 3.81 24.02 4.9 C24.47 6.29 24.92 7.67 25.38 9.06 C25.6 9.76 25.82 10.46 26.05 11.18 C27.37 15.31 27.37 15.31 30 18.69 C31.98 12.75 33.96 6.81 36 0.69 C37.65 0.36 39.3 0.03 41 -0.31 C41.66 0.68 42.32 1.67 43 2.69 C42.32 5.58 42.32 5.58 41.04 9.07 C40.82 9.69 40.6 10.3 40.37 10.93 C39.65 12.9 38.92 14.85 38.19 16.81 C37.7 18.14 37.22 19.47 36.74 20.79 C33.19 30.5 33.19 30.5 32 31.69 C30.33 31.73 28.67 31.73 27 31.69 C27 31.03 27 30.37 27 29.69 C26.34 29.69 25.68 29.69 25 29.69 C24.65 28.69 24.3 27.69 23.94 26.66 C23.48 25.36 23.02 24.05 22.56 22.75 C22.33 22.09 22.1 21.43 21.87 20.75 C20.88 17.46 20.88 17.46 19 14.69 C18.58 15.83 18.16 16.97 17.72 18.15 C17.17 19.64 16.62 21.13 16.06 22.62 C15.78 23.38 15.51 24.13 15.22 24.91 C13.11 30.57 13.11 30.57 12 31.69 C10.33 31.73 8.67 31.73 7 31.69 C7 31.03 7 30.37 7 29.69 C6.34 29.69 5.68 29.69 5 29.69 C3.49 25.42 2 21.15 0.5 16.88 C0.07 15.66 -0.36 14.45 -0.8 13.19 C-1.21 12.03 -1.61 10.87 -2.03 9.67 C-2.6 8.06 -2.6 8.06 -3.17 6.41 C-4 3.69 -4 3.69 -4 0.69 C-2 -0.31 -2 -0.31 0 0 Z " fill="#FBFCFE" transform="translate(214,191.3125)"/>
<path d="M0 0 C1.09 -0.01 2.19 -0.03 3.32 -0.04 C6.44 0.19 8.62 0.86 11.44 2.19 C12.03 7.34 12.3 12.05 11.44 17.19 C8.63 20.65 5.47 22.38 1.44 24.19 C0.43 24.66 -0.58 25.14 -1.62 25.62 C-6.46 26.55 -11.11 27.42 -15.66 25.14 C-18.13 23.42 -20.2 21.92 -21.56 19.19 C-21.93 13.61 -21.81 9.95 -18.56 5.19 C-12.77 0.42 -7.3 0.04 0 0 Z " fill="#FCFDFF" transform="translate(836.5625,249.8125)"/>
<path d="M0 0 C2.06 0.44 2.06 0.44 4 1 C4.23 1.91 4.45 2.81 4.69 3.75 C7.71 14.31 7.71 14.31 14 23 C14 23.66 14 24.32 14 25 C14.66 25.23 15.32 25.45 16 25.69 C18.54 26.8 20.52 27.97 22.81 29.5 C29.99 34.04 37.6 34.9 46 34 C55.12 31.9 62.99 27.79 68.04 19.75 C71.47 13.43 73.89 7.13 75 0 C76.65 0.33 78.3 0.66 80 1 C80.72 10.52 77.64 18.84 71.63 26.22 C63.15 35.46 52.78 40.84 40.12 41.44 C29.33 41.03 20.2 36.81 12 30 C11.34 29.47 10.68 28.93 10 28.38 C2.49 21.64 -0.41 12.99 -1.05 3.12 C-1 1 -1 1 0 0 Z " fill="#FCFDFF" transform="translate(166,110)"/>
<path d="M0 0 C1.46 -0.03 2.92 -0.05 4.38 -0.06 C5.19 -0.07 6 -0.09 6.84 -0.1 C9 0 9 0 11 1 C11.02 8.28 11.04 15.57 11.05 22.85 C11.06 26.23 11.06 29.62 11.08 33 C11.09 36.88 11.09 40.77 11.1 44.65 C11.1 45.87 11.11 47.09 11.11 48.35 C11.11 49.47 11.11 50.59 11.11 51.75 C11.12 52.74 11.12 53.73 11.12 54.75 C11 57 11 57 10 58 C4.26 58.27 4.26 58.27 2 58 C0 56 0 56 -0.24 53.63 C-0.24 52.64 -0.23 51.65 -0.23 50.63 C-0.23 49.51 -0.23 48.39 -0.23 47.24 C-0.22 46.02 -0.21 44.81 -0.2 43.55 C-0.19 42.31 -0.19 41.07 -0.19 39.8 C-0.18 36.5 -0.16 33.2 -0.14 29.9 C-0.12 26.54 -0.11 23.17 -0.1 19.81 C-0.08 13.21 -0.04 6.6 0 0 Z " fill="#000102" transform="translate(771,70)"/>
<path d="M0 0 C4.79 3.89 7.87 7.83 9.31 13.88 C9.31 15.19 9.31 16.51 9.31 17.88 C-1.58 17.88 -12.47 17.88 -23.69 17.88 C-24.89 11.84 -23.81 9.86 -20.69 4.88 C-15.76 -1.37 -7.29 -3.05 0 0 Z " fill="#FBFCFE" transform="translate(1014.6875,219.125)"/>
<path d="M0 0 C3.28 1.49 3.95 3.93 5.46 7.14 C5.9 8.07 5.9 8.07 6.36 9.01 C7.29 10.98 8.19 12.96 9.09 14.95 C9.53 15.93 9.53 15.93 9.99 16.93 C15.09 28.22 15.09 28.22 15.09 31.95 C12.84 32.26 12.84 32.26 10.09 31.95 C6.09 27.84 6.09 27.84 6.09 24.95 C4.15 25.04 2.21 25.14 0.27 25.26 C-1.34 25.35 -1.34 25.35 -3 25.44 C-6.16 25.99 -7.02 26.44 -8.91 28.95 C-9.57 29.94 -10.23 30.93 -10.91 31.95 C-13.54 32.14 -13.54 32.14 -15.91 31.95 C-16.24 31.29 -16.57 30.63 -16.91 29.95 C-16.16 27.71 -16.16 27.71 -14.93 24.93 C-14.27 23.43 -14.27 23.43 -13.59 21.89 C-13.12 20.84 -12.65 19.78 -12.16 18.7 C-11.48 17.14 -11.48 17.14 -10.78 15.55 C-9.51 12.68 -8.22 9.81 -6.91 6.95 C-6.61 6.28 -6.3 5.6 -5.99 4.91 C-3.61 -0.1 -3.61 -0.1 0 0 Z " fill="#FBFCFE" transform="translate(195.9140625,191.05078125)"/>
<path d="M0 0 C0.89 -0 1.77 -0.01 2.69 -0.01 C4.08 0 4.08 0 5.5 0.02 C6.43 0.01 7.36 0 8.31 -0.01 C9.64 -0 9.64 -0 11 0 C11.81 0 12.63 0 13.47 0.01 C15.5 0.27 15.5 0.27 17.5 2.27 C17.5 3.59 17.5 4.91 17.5 6.27 C9.58 6.76 9.58 6.76 1.5 7.27 C1.5 8.59 1.5 9.91 1.5 11.27 C2.14 11.33 2.78 11.39 3.43 11.45 C4.26 11.53 5.09 11.62 5.94 11.7 C7.17 11.82 7.17 11.82 8.43 11.95 C10.5 12.27 10.5 12.27 11.5 13.27 C11.5 14.92 11.5 16.57 11.5 18.27 C7.87 18.6 4.24 18.93 0.5 19.27 C0.83 21.25 1.16 23.23 1.5 25.27 C3.11 25.36 3.11 25.36 4.75 25.45 C6.14 25.53 7.54 25.62 8.94 25.7 C9.64 25.74 10.35 25.78 11.08 25.82 C16.39 26.15 16.39 26.15 17.5 27.27 C17.54 28.93 17.54 30.6 17.5 32.27 C13.88 32.32 10.25 32.36 6.62 32.39 C5.59 32.41 4.56 32.42 3.5 32.44 C2.02 32.45 2.02 32.45 0.51 32.46 C-0.86 32.48 -0.86 32.48 -2.25 32.49 C-4.5 32.27 -4.5 32.27 -6.5 30.27 C-6.76 27.5 -6.76 27.5 -6.77 24.02 C-6.77 22.77 -6.77 21.52 -6.77 20.23 C-6.77 18.92 -6.76 17.62 -6.75 16.27 C-6.76 14.96 -6.77 13.65 -6.77 12.3 C-6.77 11.05 -6.77 9.8 -6.77 8.52 C-6.76 7.37 -6.76 6.22 -6.76 5.03 C-6.32 0.3 -4.24 0.01 0 0 Z " fill="#FCFDFF" transform="translate(268.5,190.734375)"/>
<path d="M0 0 C0.06 0.71 0.12 1.42 0.18 2.15 C0.27 3.07 0.35 3.99 0.44 4.94 C0.52 5.85 0.6 6.77 0.68 7.71 C0.76 9.96 0.76 9.96 2 11 C4.18 11.23 6.37 11.41 8.56 11.56 C9.76 11.65 10.96 11.73 12.19 11.82 C13.12 11.88 14.05 11.94 15 12 C15 8.04 15 4.08 15 0 C16.65 -0.33 18.3 -0.66 20 -1 C21 0 21 0 21.11 2.96 C21.11 4.25 21.1 5.55 21.1 6.88 C21.1 7.57 21.09 8.25 21.09 8.96 C21.09 11.16 21.08 13.36 21.06 15.56 C21.06 17.05 21.05 18.54 21.05 20.03 C21.04 23.69 21.02 27.34 21 31 C19.35 31 17.7 31 16 31 C14.55 28.11 14.57 25.19 14.28 22 C14.2 20 14.2 20 13 19 C11.17 18.9 9.33 18.87 7.5 18.88 C6 18.87 6 18.87 4.47 18.87 C2.06 18.72 2.06 18.72 1 20 C0.77 21.85 0.59 23.7 0.44 25.56 C0.35 26.57 0.27 27.59 0.18 28.63 C0.12 29.41 0.06 30.19 0 31 C-1.65 31 -3.3 31 -5 31 C-6.44 28.13 -6.11 25.66 -6.1 22.46 C-6.09 21.16 -6.09 19.86 -6.09 18.52 C-6.08 17.14 -6.07 15.76 -6.06 14.38 C-6.06 12.99 -6.05 11.6 -6.05 10.21 C-6.04 6.81 -6.02 3.4 -6 0 C-3.51 -1.25 -2.59 -0.78 0 0 Z " fill="#FCFDFF" transform="translate(117,192)"/>
<path d="M0 0 C3.54 0.54 3.54 0.54 5 2 C5.12 3.45 5.18 4.91 5.21 6.37 C5.24 7.25 5.27 8.14 5.3 9.05 C5.35 10.93 5.39 12.8 5.43 14.68 C5.46 15.56 5.49 16.45 5.52 17.37 C5.54 18.18 5.56 19 5.58 19.84 C6.1 22.54 6.75 23.44 9 25 C11.28 25.36 11.28 25.36 13.69 25.19 C14.5 25.16 15.3 25.13 16.14 25.11 C17.06 25.05 17.06 25.05 18 25 C18.02 24.31 18.04 23.63 18.06 22.92 C18.16 19.82 18.26 16.72 18.38 13.62 C18.41 12.54 18.44 11.46 18.47 10.35 C18.51 9.32 18.55 8.29 18.59 7.23 C18.62 6.27 18.65 5.32 18.68 4.34 C19 2 19 2 21 0 C24.54 0.54 24.54 0.54 26 2 C26.25 5.22 26.19 8.46 26.19 11.69 C26.2 12.59 26.21 13.49 26.22 14.41 C26.24 20.46 25.97 25.29 22.3 30.34 C17.6 33.73 11.51 32.73 6 32 C2.86 30.73 2.16 29.81 0 27 C-2.01 21.47 -2.31 16.49 -2.25 10.69 C-2.26 9.88 -2.27 9.07 -2.27 8.23 C-2.25 2.25 -2.25 2.25 0 0 Z " fill="#FCFDFF" transform="translate(149,191)"/>
<path d="M0 0 C4.09 0.06 5.9 0.17 9.5 2.25 C11.99 6.69 12.22 10.4 11.25 15.38 C9.44 18.5 9.44 18.5 6.25 20.38 C2.53 20.87 -1.03 20.94 -4.75 20.38 C-6.75 18.38 -6.75 18.38 -6.98 14.5 C-6.98 12.93 -6.96 11.37 -6.94 9.81 C-6.94 9.02 -6.94 8.23 -6.94 7.41 C-6.88 0.62 -6.71 0.21 0 0 Z " fill="#FCFDFF" transform="translate(511.75,77.625)"/>
<path d="M0 0 C2.08 -0.14 4.17 -0.23 6.25 -0.31 C7.41 -0.37 8.57 -0.43 9.77 -0.49 C13 0 13 0 15.39 2.3 C17.53 5.89 17.65 7.88 17 12 C14.97 15.47 12.9 17.7 9 19 C6.28 19.23 3.75 19.13 1 19 C-1 17 -1 17 -1.23 14.86 C-1.15 9.82 -0.87 4.98 0 0 Z " fill="#FCFDFF" transform="translate(659,78)"/>
<path d="M0 0 C1.32 0.33 2.64 0.66 4 1 C4 11.23 4 21.46 4 32 C-1 31 -1 31 -2 30 C-2.25 25.36 -2.19 20.71 -2.19 16.06 C-2.2 14.75 -2.21 13.43 -2.22 12.08 C-2.23 10.2 -2.23 10.2 -2.23 8.29 C-2.23 7.13 -2.24 5.97 -2.24 4.78 C-2 2 -2 2 0 0 Z " fill="#FCFDFF" transform="translate(296,191)"/>
<path d="M0 0 C0.66 0 1.32 0 2 0 C5 6.62 5 6.62 5 10 C2.69 10 0.38 10 -2 10 C-1.54 6.53 -1.11 3.33 0 0 Z " fill="#C4162F" transform="translate(194,201)"/>
</svg>
