<?xml version="1.0" encoding="UTF-8"?>
<!-- Generator: visioncortex VTracer 0.6.3 -->
<svg version="1.1" xmlns="http://www.w3.org/2000/svg" width="1280" height="384">
<path d="M0 0 C422.4 0 844.8 0 1280 0 C1280 126.72 1280 253.44 1280 384 C857.6 384 435.2 384 0 384 C0 257.28 0 130.56 0 0 Z " fill="#000100" transform="translate(0,0)"/>
<path d="M0 0 C1.3 -0 2.6 -0.01 3.94 -0.02 C7.49 -0.03 11.04 -0.03 14.59 -0.04 C16.82 -0.04 19.04 -0.05 21.27 -0.05 C28.26 -0.06 35.25 -0.07 42.25 -0.08 C50.27 -0.08 58.29 -0.1 66.32 -0.13 C72.55 -0.15 78.78 -0.16 85.01 -0.16 C88.72 -0.16 92.43 -0.17 96.14 -0.19 C144.83 -0.41 144.83 -0.41 161.74 15.97 C179.64 35.05 177.19 64.91 177.18 89.17 C177.18 91.19 177.18 93.21 177.19 95.23 C177.2 101.56 177.2 107.88 177.19 114.21 C177.19 120.68 177.2 127.14 177.22 133.6 C177.24 139.21 177.24 144.81 177.24 150.42 C177.24 153.75 177.24 157.07 177.26 160.39 C177.43 213.23 177.43 213.23 161.88 229.16 C147.08 242.57 129.74 244.3 110.46 244.32 C109.12 244.33 107.79 244.33 106.46 244.34 C102.86 244.35 99.26 244.36 95.66 244.36 C93.4 244.36 91.14 244.37 88.88 244.37 C81.79 244.39 74.7 244.4 67.61 244.4 C59.47 244.4 51.34 244.42 43.2 244.45 C36.88 244.47 30.56 244.48 24.24 244.48 C20.48 244.49 16.72 244.49 12.96 244.51 C-34.46 244.72 -34.46 244.72 -51.12 230.16 C-51.73 229.67 -52.33 229.18 -52.95 228.68 C-62.67 220.11 -65.18 207.38 -67.12 195.16 C-67.3 194.22 -67.47 193.27 -67.65 192.3 C-68.1 189.32 -68.25 186.55 -68.26 183.54 C-68.27 181.9 -68.27 181.9 -68.28 180.23 C-68.28 179.04 -68.28 177.85 -68.28 176.63 C-68.29 175.37 -68.29 174.11 -68.3 172.81 C-68.31 169.36 -68.32 165.91 -68.32 162.46 C-68.33 160.29 -68.33 158.13 -68.33 155.97 C-68.35 149.17 -68.36 142.38 -68.36 135.59 C-68.37 127.79 -68.38 119.99 -68.41 112.19 C-68.43 106.14 -68.44 100.08 -68.45 94.03 C-68.45 90.43 -68.45 86.82 -68.47 83.22 C-68.71 33.33 -68.71 33.33 -53.52 16.37 C-39.09 2.43 -19.12 0.02 0 0 Z " fill="#C4112D" transform="translate(151.122802734375,68.8388671875)"/>
<path d="M0 0 C422.4 0 844.8 0 1280 0 C1280 126.72 1280 253.44 1280 384 C857.6 384 435.2 384 0 384 C0 257.28 0 130.56 0 0 Z M34.43 15.4 C33.96 15.93 33.48 16.46 33 17 C31.52 18.25 30.02 19.48 28.5 20.69 C27.73 21.31 26.95 21.93 26.16 22.57 C24 24 24 24 21 24 C20.89 24.75 20.78 25.5 20.67 26.27 C19.96 29.17 19.11 30.41 17.25 32.69 C10.81 42.09 8.78 53.95 8.37 65.15 C8.33 66.01 8.3 66.86 8.26 67.75 C7.85 78.25 7.86 88.77 7.87 99.28 C7.87 101.54 7.87 103.8 7.87 106.06 C7.86 112.13 7.86 118.21 7.87 124.28 C7.87 130.68 7.87 137.07 7.86 143.46 C7.86 154.87 7.87 166.28 7.87 177.7 C7.88 188 7.87 198.31 7.87 208.62 C7.86 220.65 7.86 232.68 7.87 244.7 C7.87 251.05 7.87 257.4 7.86 263.74 C7.86 269.71 7.86 275.68 7.87 281.64 C7.87 283.82 7.87 286 7.87 288.17 C7.86 298.12 7.9 308.05 8.44 317.99 C8.48 318.7 8.51 319.41 8.55 320.14 C9.47 335.21 13.74 350.47 25.23 360.97 C45.15 375.56 68.05 375.16 91.67 375.13 C93.62 375.13 95.57 375.13 97.52 375.13 C102.86 375.13 108.2 375.13 113.55 375.13 C119.37 375.13 125.19 375.13 131.01 375.13 C141.87 375.14 152.73 375.13 163.6 375.13 C173.86 375.13 184.12 375.13 194.39 375.13 C195.43 375.13 195.43 375.13 196.49 375.13 C199.3 375.13 202.12 375.13 204.94 375.13 C231.15 375.14 257.37 375.14 283.59 375.14 C284.36 375.14 285.14 375.14 285.94 375.14 C287.1 375.14 287.1 375.14 288.29 375.14 C311.99 375.13 335.68 375.13 359.37 375.13 C360.96 375.13 362.55 375.13 364.14 375.13 C370.51 375.13 376.89 375.13 383.27 375.14 C401.1 375.14 418.94 375.14 436.77 375.14 C437.99 375.14 437.99 375.14 439.23 375.14 C465.1 375.14 490.96 375.14 516.83 375.13 C517.67 375.13 518.51 375.13 519.38 375.13 C533 375.13 546.62 375.13 560.24 375.13 C614.27 375.13 668.29 375.13 722.32 375.13 C735.94 375.13 749.55 375.13 763.17 375.13 C764.01 375.13 764.84 375.13 765.71 375.13 C791.55 375.14 817.39 375.14 843.23 375.14 C844.04 375.14 844.86 375.14 845.69 375.14 C863.5 375.14 881.31 375.14 899.13 375.13 C905.5 375.13 911.87 375.13 918.25 375.13 C919.83 375.13 921.42 375.13 923 375.13 C946.69 375.13 970.38 375.13 994.06 375.14 C995.23 375.14 995.23 375.14 996.41 375.14 C997.58 375.14 997.58 375.14 998.76 375.14 C1024.9 375.14 1051.04 375.14 1077.19 375.13 C1079.99 375.13 1082.8 375.13 1085.61 375.13 C1086.3 375.13 1086.99 375.13 1087.7 375.13 C1097.94 375.13 1108.17 375.13 1118.41 375.13 C1129.8 375.14 1141.19 375.14 1152.59 375.13 C1158.32 375.13 1164.06 375.13 1169.79 375.13 C1175.01 375.13 1180.24 375.13 1185.46 375.13 C1187.33 375.13 1189.2 375.13 1191.08 375.13 C1223.22 375.62 1223.22 375.62 1251.75 362.25 C1252.49 361.51 1253.23 360.76 1254 360 C1254 359.34 1254 358.68 1254 358 C1254.6 357.75 1255.2 357.5 1255.82 357.24 C1262.69 353.34 1266.28 343.22 1268.47 336.04 C1269.4 332.43 1269.78 328.79 1270.12 325.08 C1270.21 324.21 1270.29 323.35 1270.38 322.46 C1271.33 311.5 1271.28 300.53 1271.26 289.54 C1271.26 287.15 1271.27 284.77 1271.27 282.38 C1271.28 275.96 1271.28 269.54 1271.27 263.13 C1271.27 259.1 1271.27 255.08 1271.27 251.06 C1271.27 250.39 1271.27 249.71 1271.27 249.02 C1271.27 247.66 1271.27 246.29 1271.27 244.93 C1271.28 232.18 1271.27 219.43 1271.26 206.69 C1271.25 195.8 1271.25 184.9 1271.26 174.01 C1271.27 161.3 1271.28 148.59 1271.27 135.89 C1271.27 134.53 1271.27 133.17 1271.27 131.81 C1271.27 131.14 1271.27 130.47 1271.27 129.78 C1271.26 125.11 1271.27 120.44 1271.27 115.77 C1271.28 109.46 1271.27 103.16 1271.26 96.85 C1271.26 94.55 1271.26 92.25 1271.27 89.95 C1271.28 79.41 1271.19 68.95 1270.12 58.46 C1270.05 57.71 1269.97 56.96 1269.9 56.19 C1268.63 45.3 1264.66 35.71 1258 27 C1257.1 25.67 1257.1 25.67 1256.19 24.31 C1245.13 12.62 1228.66 8.41 1213.07 7.94 C1207.33 7.85 1201.59 7.86 1195.85 7.87 C1193.89 7.87 1191.92 7.87 1189.95 7.87 C1184.53 7.86 1179.11 7.86 1173.7 7.87 C1167.81 7.87 1161.92 7.86 1156.02 7.86 C1145.7 7.85 1135.37 7.85 1125.04 7.85 C1113.96 7.86 1102.88 7.85 1091.8 7.85 C1091.1 7.85 1090.4 7.85 1089.68 7.85 C1086.83 7.85 1083.98 7.85 1081.12 7.85 C1051.38 7.84 1021.64 7.83 991.9 7.83 C988.7 7.83 985.5 7.83 982.29 7.83 C981.5 7.83 980.71 7.83 979.89 7.83 C962.28 7.83 944.68 7.83 927.07 7.83 C919.82 7.83 912.57 7.83 905.32 7.82 C904.12 7.82 904.12 7.82 902.89 7.82 C856.99 7.82 811.09 7.81 765.18 7.81 C763.47 7.81 761.75 7.81 760.03 7.81 C752.27 7.81 744.52 7.81 736.76 7.81 C733.3 7.81 729.85 7.81 726.39 7.81 C724.66 7.81 722.93 7.81 721.19 7.81 C666.46 7.82 611.73 7.81 556.99 7.79 C543.2 7.79 529.41 7.79 515.62 7.78 C514.35 7.78 514.35 7.78 513.05 7.78 C486.87 7.78 460.7 7.77 434.53 7.77 C433.71 7.77 432.88 7.77 432.04 7.77 C414 7.77 395.96 7.77 377.91 7.77 C371.46 7.77 365 7.77 358.55 7.77 C356.94 7.77 355.34 7.77 353.73 7.77 C328.15 7.77 302.57 7.77 276.98 7.76 C251.21 7.75 225.45 7.75 199.68 7.75 C196.11 7.75 192.55 7.75 188.99 7.76 C188.29 7.76 187.59 7.76 186.87 7.76 C175.83 7.76 164.78 7.75 153.73 7.75 C142.86 7.74 131.99 7.74 121.12 7.75 C115.31 7.75 109.5 7.75 103.69 7.74 C98.4 7.74 93.11 7.74 87.81 7.75 C85.92 7.75 84.02 7.75 82.12 7.74 C56.89 6.76 56.89 6.76 34.43 15.4 Z " fill="#C2C2C2" transform="translate(0,0)"/>
<path d="M0 0 C7.72 4.9 11.83 12.23 14.27 20.81 C17.42 36.13 16.45 53.46 8.19 66.94 C2.7 74.47 -4.28 79.54 -13.47 81.66 C-22.31 82.86 -31.19 81.98 -40 81 C-40.33 91.56 -40.66 102.12 -41 113 C-44.01 114.51 -47.19 114.46 -50.5 114.69 C-51.19 114.75 -51.88 114.81 -52.59 114.87 C-54.39 115 -56.2 115.01 -58 115 C-60.47 112.53 -60.25 111.84 -60.25 108.45 C-60.26 107.49 -60.27 106.53 -60.27 105.54 C-60.27 104.48 -60.26 103.43 -60.26 102.34 C-60.26 100.68 -60.26 100.68 -60.27 98.98 C-60.28 95.3 -60.27 91.62 -60.27 87.94 C-60.27 85.39 -60.27 82.84 -60.27 80.29 C-60.27 74.95 -60.27 69.6 -60.26 64.25 C-60.25 58.07 -60.25 51.88 -60.26 45.7 C-60.27 39.75 -60.27 33.81 -60.27 27.86 C-60.27 25.33 -60.27 22.8 -60.27 20.26 C-60.28 16.73 -60.27 13.19 -60.26 9.66 C-60.26 8.6 -60.27 7.55 -60.27 6.46 C-60.27 5.5 -60.26 4.54 -60.25 3.55 C-60.25 2.72 -60.25 1.88 -60.25 1.02 C-60 -1 -60 -1 -58 -3 C-55.42 -3.14 -52.95 -3.19 -50.38 -3.12 C-49.67 -3.12 -48.96 -3.11 -48.23 -3.1 C-46.49 -3.07 -44.74 -3.04 -43 -3 C-41.68 -0.03 -40.36 2.94 -39 6 C-37.91 5.09 -36.81 4.19 -35.69 3.25 C-24.48 -5.09 -12.36 -6.56 0 0 Z " fill="#FAFCFC" transform="translate(574,208)"/>
<path d="M0 0 C3.69 2.63 6.17 5.26 8.62 9.06 C9.19 9.92 9.76 10.78 10.35 11.66 C14.44 19.93 15.53 28.23 15.44 37.38 C15.43 38.38 15.42 39.38 15.41 40.42 C15.14 52.94 12 63.33 3.41 72.74 C-3.65 79.42 -13.12 82.18 -22.62 82.12 C-23.3 82.13 -23.97 82.13 -24.67 82.14 C-29.91 82.13 -34.72 81.59 -40 81 C-40.33 91.56 -40.66 102.12 -41 113 C-44.01 114.51 -47.19 114.46 -50.5 114.69 C-51.19 114.75 -51.88 114.81 -52.59 114.87 C-54.39 115 -56.2 115.01 -58 115 C-60.47 112.53 -60.25 111.84 -60.25 108.45 C-60.26 107.49 -60.27 106.53 -60.27 105.54 C-60.27 104.48 -60.26 103.43 -60.26 102.34 C-60.26 100.68 -60.26 100.68 -60.27 98.98 C-60.28 95.3 -60.27 91.62 -60.27 87.94 C-60.27 85.39 -60.27 82.84 -60.27 80.29 C-60.27 74.95 -60.27 69.6 -60.26 64.25 C-60.25 58.07 -60.25 51.88 -60.26 45.7 C-60.27 39.75 -60.27 33.81 -60.27 27.86 C-60.27 25.33 -60.27 22.8 -60.27 20.26 C-60.28 16.73 -60.27 13.19 -60.26 9.66 C-60.26 8.6 -60.27 7.55 -60.27 6.46 C-60.27 5.5 -60.26 4.54 -60.25 3.55 C-60.25 2.72 -60.25 1.88 -60.25 1.02 C-60 -1 -60 -1 -58 -3 C-55.42 -3.14 -52.95 -3.19 -50.38 -3.12 C-49.67 -3.12 -48.96 -3.11 -48.23 -3.1 C-46.49 -3.07 -44.74 -3.04 -43 -3 C-42.01 -0.36 -41.02 2.28 -40 5 C-37.23 5 -36.11 3.79 -33.88 2.19 C-22.96 -5.16 -11.88 -6.57 0 0 Z " fill="#FAFCFC" transform="translate(661,208)"/>
<path d="M0 0 C1.58 0.01 3.16 0.02 4.75 0.04 C5.55 0.04 6.36 0.04 7.19 0.05 C9.19 0.06 11.19 0.08 13.18 0.1 C16.31 6.99 19.21 13.96 22.06 20.97 C22.53 22.14 23.01 23.3 23.49 24.5 C27.34 33.98 31.14 43.47 34.93 52.97 C39.74 65.01 44.57 77.04 49.43 89.05 C50.09 90.7 50.76 92.34 51.42 93.98 C52.35 96.27 53.27 98.56 54.2 100.84 C54.47 101.52 54.75 102.2 55.03 102.9 C56.3 106.03 57.61 109.1 59.18 112.1 C55.72 111.96 52.27 111.81 48.81 111.66 C47.82 111.62 46.84 111.58 45.82 111.54 C44.88 111.5 43.94 111.46 42.97 111.41 C42.1 111.38 41.23 111.34 40.34 111.3 C38.18 111.1 38.18 111.1 36.18 110.1 C35.33 108.14 34.56 106.14 33.84 104.13 C33.4 102.92 32.96 101.71 32.5 100.46 C32.04 99.17 31.58 97.89 31.12 96.6 C30.22 94.09 29.31 91.58 28.4 89.07 C28 87.95 27.6 86.83 27.18 85.67 C26.42 83.2 26.42 83.2 25.18 82.1 C22.08 82.01 19 81.98 15.9 82 C14.97 82 14.04 82 13.08 82 C10.09 82.01 7.11 82.02 4.12 82.04 C2.1 82.04 0.08 82.04 -1.94 82.05 C-6.9 82.06 -11.86 82.08 -16.82 82.1 C-19.8 89.12 -22.65 96.14 -25.13 103.35 C-26.02 105.91 -26.9 108.46 -27.82 111.1 C-34.09 111.1 -40.36 111.1 -46.82 111.1 C-47.82 109.1 -47.82 109.1 -46.94 106.36 C-46.48 105.2 -46.01 104.04 -45.53 102.84 C-45.27 102.2 -45.02 101.57 -44.76 100.91 C-43.91 98.78 -43.05 96.66 -42.19 94.54 C-41.59 93.04 -41 91.54 -40.4 90.04 C-39.16 86.93 -37.91 83.82 -36.66 80.71 C-34.14 74.41 -31.65 68.1 -29.17 61.79 C-28.38 59.78 -27.58 57.76 -26.79 55.75 C-23.83 48.25 -20.9 40.75 -17.99 33.23 C-17.51 32 -17.51 32 -17.03 30.74 C-15.48 26.74 -13.94 22.75 -12.4 18.75 C-11.84 17.3 -11.28 15.85 -10.71 14.4 C-10.34 13.42 -10.34 13.42 -9.96 12.42 C-5.19 0.13 -5.19 0.13 0 0 Z " fill="#FAFCFC" transform="translate(447.81640625,176.90234375)"/>
<path d="M0 0 C0 0.66 0 1.32 0 2 C0.66 2 1.32 2 2 2 C1.46 7.28 0.23 11.26 -2 16 C-2.57 15.82 -3.14 15.64 -3.73 15.45 C-20.72 10.18 -34.97 7.1 -51.61 15.29 C-61.84 21.45 -65.9 31.78 -68.75 42.94 C-69.86 56.58 -68.51 69.66 -60.81 81.31 C-54.92 86.94 -46.98 91.24 -38.73 91.27 C-37.74 91.27 -36.75 91.27 -35.73 91.27 C-34.7 91.27 -33.68 91.26 -32.62 91.25 C-31.61 91.26 -30.59 91.27 -29.55 91.27 C-28.55 91.27 -27.56 91.27 -26.54 91.27 C-25.64 91.26 -24.75 91.26 -23.83 91.26 C-20.25 91.02 -20.25 91.02 -14 89 C-14 82.07 -14 75.14 -14 68 C-16.46 67.93 -16.46 67.93 -18.96 67.85 C-21.1 67.78 -23.24 67.7 -25.38 67.62 C-26.46 67.59 -27.54 67.56 -28.65 67.53 C-29.68 67.49 -30.71 67.45 -31.77 67.41 C-33.2 67.37 -33.2 67.37 -34.66 67.32 C-37 67 -37 67 -39 65 C-39.27 62.47 -39.27 62.47 -39.25 59.5 C-39.26 58.03 -39.26 58.03 -39.27 56.53 C-39 54 -39 54 -37 52 C-33.93 51.81 -30.94 51.74 -27.87 51.77 C-26.97 51.77 -26.06 51.77 -25.13 51.77 C-23.22 51.77 -21.3 51.78 -19.39 51.79 C-16.45 51.81 -13.51 51.81 -10.56 51.81 C-8.71 51.82 -6.85 51.83 -5 51.83 C-3.67 51.83 -3.67 51.83 -2.31 51.84 C3.88 51.88 3.88 51.88 5 53 C5.09 54.47 5.12 55.95 5.11 57.43 C5.11 58.84 5.11 58.84 5.11 60.28 C5.11 61.3 5.1 62.33 5.1 63.38 C5.1 64.42 5.09 65.46 5.09 66.54 C5.09 69.88 5.08 73.22 5.06 76.56 C5.06 78.82 5.05 81.08 5.05 83.34 C5.04 88.89 5.02 94.45 5 100 C-17.37 108.26 -39.34 111.95 -62.09 102.75 C-74.49 96.63 -82.07 86.74 -87 74 C-92.57 56.28 -91.14 37.27 -82.56 20.81 C-74.8 7.64 -62.87 -0.78 -48.06 -4.81 C-31.89 -8.15 -15.19 -6.38 0 0 Z " fill="#FAFCFC" transform="translate(776,182)"/>
<path d="M0 0 C6.82 5.73 11.39 13.17 12.56 22.09 C12.98 27.06 12.87 32.05 12.85 37.03 C12.85 38.24 12.84 39.45 12.84 40.7 C12.84 44.55 12.83 48.4 12.81 52.25 C12.81 54.87 12.8 57.49 12.8 60.1 C12.79 66.51 12.77 72.91 12.75 79.31 C7.14 79.31 1.53 79.31 -4.25 79.31 C-4.91 77 -5.57 74.69 -6.25 72.31 C-9.87 74.08 -13.35 76.07 -16.84 78.09 C-24.98 82.21 -34.19 82.71 -43 80.31 C-48.87 78.03 -54.66 73.55 -57.46 67.85 C-59.71 60.62 -59.79 53.47 -57.25 46.31 C-53.88 39.94 -48.28 34.5 -41.45 31.9 C-29.78 28.78 -18.12 28.78 -6.25 30.31 C-7.23 23.89 -8.29 18.56 -12.25 13.31 C-18.94 9.17 -25.57 9.48 -33.09 11.18 C-36.83 12.15 -40.54 13.23 -44.25 14.31 C-45.58 14.65 -46.91 14.99 -48.25 15.31 C-52 11.57 -51.94 7.33 -52.25 2.31 C-38.51 -7.63 -14.61 -7.58 0 0 Z " fill="#FAFCFC" transform="translate(854.25,208.6875)"/>
<path d="M0 0 C11.44 12.07 13.25 22.66 13.25 39.38 C-3.91 39.7 -21.07 40.03 -38.75 40.38 C-40.52 43.92 -38.78 47.7 -37.75 51.38 C-35.68 57.59 -31.35 60.4 -25.75 63.38 C-15.49 66.98 -2.89 64 7.25 61.38 C9.9 65.61 11.58 69.68 13.25 74.38 C-3.8 80.41 -22.58 84.43 -39.75 76.38 C-49.13 70.87 -55.09 64.99 -58.19 54.55 C-61.62 41.21 -60.55 25.94 -54.32 13.54 C-48.32 4.21 -40.28 -2.25 -29.52 -5.12 C-18.78 -7.09 -9.38 -5.54 0 0 Z " fill="#FAFCFC" transform="translate(1028.75,209.625)"/>
<path d="M0 0 C0.74 0.01 1.49 0.02 2.25 0.03 C3.46 0.04 3.46 0.04 4.69 0.05 C5.96 0.08 5.96 0.08 7.25 0.1 C8.52 0.12 8.52 0.12 9.82 0.13 C11.92 0.15 14.02 0.19 16.12 0.23 C20.27 10.99 24.09 21.83 27.65 32.8 C28.44 35.26 29.25 37.7 30.06 40.15 C30.58 41.74 31.09 43.33 31.61 44.91 C31.85 45.63 32.09 46.35 32.33 47.09 C33.84 51.81 34.63 56.29 35.12 61.23 C35.78 61.23 36.44 61.23 37.12 61.23 C37.37 60.48 37.62 59.72 37.88 58.95 C38.24 57.88 38.59 56.82 38.96 55.72 C39.36 54.52 39.76 53.32 40.17 52.08 C41.06 49.41 41.95 46.74 42.85 44.06 C45 37.62 47.14 31.18 49.25 24.72 C50.15 21.95 51.06 19.18 51.97 16.41 C52.4 15.08 52.84 13.75 53.27 12.41 C53.87 10.55 54.48 8.69 55.09 6.83 C55.43 5.77 55.78 4.71 56.13 3.62 C57.12 1.23 57.12 1.23 59.12 0.23 C61.63 0.13 64.11 0.09 66.62 0.1 C67.31 0.1 68 0.09 68.71 0.09 C73.87 0.1 73.87 0.1 76.12 1.23 C74.82 7.82 72.92 13.81 70.43 20.04 C67.4 27.7 64.63 35.43 61.92 43.2 C58.84 52.04 55.7 60.85 52.51 69.65 C51.87 71.42 51.23 73.2 50.6 74.98 C41.63 100.06 41.63 100.06 33.56 108.73 C32.83 109.52 32.11 110.32 31.37 111.13 C24.43 117.6 15.85 118.63 6.66 118.42 C2.42 118.1 -1.84 117.55 -5.88 116.23 C-7.37 113.24 -6.29 111.28 -5.44 108.1 C-5.15 107.01 -4.87 105.91 -4.57 104.78 C-4.34 103.94 -4.11 103.1 -3.88 102.23 C-2.81 102.27 -1.73 102.32 -0.63 102.37 C10.07 103.03 10.07 103.03 19.12 98.23 C22.74 93.79 25.5 90.09 24.91 84.21 C24.21 78.71 22.4 73.78 20.44 68.61 C20.07 67.61 19.69 66.61 19.31 65.58 C18.11 62.36 16.9 59.14 15.68 55.91 C14.86 53.7 14.04 51.49 13.21 49.28 C11.99 45.99 10.76 42.7 9.54 39.41 C6.28 30.69 3.11 21.94 -0 13.16 C-0.61 11.45 -0.61 11.45 -1.24 9.7 C-2.12 7.21 -3 4.72 -3.88 2.23 C-1.88 0.23 -1.88 0.23 0 0 Z " fill="#FAFCFC" transform="translate(1118.87939453125,204.77294921875)"/>
<path d="M0 0 C6.44 4.12 12.03 10.47 14.04 17.91 C15.52 27.73 15.89 38.47 9.82 46.78 C4.94 52.57 0.98 55.87 -6.56 57.56 C-17.73 58.48 -26.67 58.07 -35.44 50.81 C-41.65 44.91 -43.47 38.5 -43.88 30.06 C-43.74 21 -41.19 11.72 -34.64 5.22 C-25.43 -2.11 -11.16 -4.76 0 0 Z " fill="#FAFCFC" transform="translate(622.5625,70.4375)"/>
<path d="M0 0 C6.8 5.69 11.82 12.38 12.67 21.4 C13.17 31.43 12.81 39.71 6.23 47.68 C0.86 53.59 -4.8 56.01 -12.71 56.69 C-22.44 56.92 -29.46 56 -37.14 49.84 C-43.62 43.6 -45.51 37.34 -45.83 28.46 C-45.5 18.85 -42.95 11.08 -36.26 4.05 C-27.39 -3.55 -10.21 -6.37 0 0 Z " fill="#FAFCFC" transform="translate(911.328125,71.6015625)"/>
<path d="M0 0 C0.01 1.23 0.02 2.47 0.03 3.74 C0.13 15.35 0.23 26.96 0.34 38.57 C0.39 44.54 0.45 50.51 0.5 56.48 C0.54 62.23 0.6 67.99 0.65 73.75 C0.67 75.95 0.69 78.15 0.71 80.35 C0.73 83.42 0.76 86.5 0.79 89.57 C0.8 90.94 0.8 90.94 0.81 92.34 C0.82 93.18 0.83 94.02 0.84 94.88 C0.85 95.61 0.85 96.34 0.86 97.08 C0.94 99.22 0.94 99.22 2 102 C2.7 102.09 3.4 102.17 4.12 102.26 C11.55 103.41 11.55 103.41 13.56 106.06 C14.15 110.04 14.67 114 15 118 C7.87 120.69 -0.75 121.67 -8 118.75 C-13.93 115.29 -16.34 113.05 -18.39 106.55 C-19.41 102.28 -19.42 98.12 -19.39 93.75 C-19.39 92.77 -19.4 91.79 -19.4 90.78 C-19.42 87.56 -19.41 84.35 -19.4 81.13 C-19.4 78.89 -19.4 76.64 -19.41 74.4 C-19.41 69.71 -19.41 65.02 -19.39 60.33 C-19.37 54.32 -19.38 48.3 -19.4 42.29 C-19.41 37.66 -19.41 33.03 -19.4 28.4 C-19.4 26.19 -19.4 23.97 -19.41 21.75 C-19.42 18.65 -19.4 15.56 -19.39 12.47 C-19.39 11.55 -19.4 10.63 -19.41 9.68 C-19.39 8.42 -19.39 8.42 -19.38 7.13 C-19.38 6.4 -19.38 5.67 -19.38 4.92 C-18.89 2.42 -18.01 1.54 -16 0 C-12.97 -0.55 -12.97 -0.55 -9.5 -0.75 C-7.78 -0.87 -7.78 -0.87 -6.03 -0.98 C-3 -1 -3 -1 0 0 Z " fill="#FAFCFC" transform="translate(902,170)"/>
<path d="M0 0 C0.01 1.23 0.02 2.47 0.03 3.74 C0.13 15.35 0.23 26.96 0.34 38.57 C0.39 44.54 0.45 50.51 0.5 56.48 C0.54 62.23 0.6 67.99 0.65 73.75 C0.67 75.95 0.69 78.15 0.71 80.35 C0.73 83.42 0.76 86.5 0.79 89.57 C0.8 90.94 0.8 90.94 0.81 92.34 C0.82 93.18 0.83 94.02 0.84 94.88 C0.85 95.61 0.85 96.34 0.86 97.08 C0.94 99.22 0.94 99.22 2 102 C2.7 102.09 3.4 102.17 4.12 102.26 C11.55 103.41 11.55 103.41 13.56 106.06 C14.15 110.04 14.67 114 15 118 C7.85 120.6 -0.71 121.64 -7.94 118.75 C-12.98 115.87 -16.36 113.75 -18 108 C-19.11 102.74 -19.15 97.63 -19.16 92.28 C-19.17 90.84 -19.17 90.84 -19.18 89.36 C-19.19 86.2 -19.2 83.03 -19.2 79.86 C-19.21 77.66 -19.21 75.46 -19.22 73.25 C-19.23 68.64 -19.24 64.03 -19.24 59.41 C-19.25 53.5 -19.27 47.58 -19.3 41.66 C-19.32 37.11 -19.32 32.56 -19.32 28.02 C-19.33 25.83 -19.33 23.65 -19.35 21.47 C-19.36 18.42 -19.36 15.38 -19.36 12.33 C-19.37 11.43 -19.37 10.52 -19.38 9.59 C-19.38 8.76 -19.37 7.93 -19.37 7.08 C-19.37 6.36 -19.37 5.64 -19.37 4.9 C-18.88 2.41 -17.99 1.53 -16 0 C-12.97 -0.55 -12.97 -0.55 -9.5 -0.75 C-7.78 -0.87 -7.78 -0.87 -6.03 -0.98 C-3 -1 -3 -1 0 0 Z " fill="#FAFCFC" transform="translate(949,170)"/>
<path d="M0 0 C0.9 0.01 1.8 0.02 2.73 0.03 C3.42 0.04 4.1 0.05 4.81 0.06 C6.14 6.16 5.28 11.04 3.81 17.06 C3.11 17.09 2.41 17.11 1.69 17.14 C-7.77 17.71 -13.21 19.61 -19.62 26.69 C-23.01 30.68 -24.3 32.73 -24.39 37.97 C-24.41 38.99 -24.43 40.01 -24.45 41.06 C-24.48 42.72 -24.48 42.72 -24.5 44.41 C-24.52 45.54 -24.55 46.67 -24.57 47.84 C-24.63 51.45 -24.69 55.07 -24.75 58.69 C-24.79 61.14 -24.84 63.58 -24.88 66.03 C-24.99 72.04 -25.09 78.05 -25.19 84.06 C-28.17 84.09 -31.15 84.11 -34.12 84.12 C-34.98 84.13 -35.83 84.14 -36.7 84.15 C-37.51 84.15 -38.32 84.16 -39.15 84.16 C-39.9 84.17 -40.65 84.17 -41.42 84.18 C-43.19 84.06 -43.19 84.06 -44.19 83.06 C-44.29 80.58 -44.33 78.12 -44.33 75.64 C-44.34 74.86 -44.34 74.08 -44.34 73.28 C-44.35 70.7 -44.35 68.12 -44.36 65.54 C-44.36 63.75 -44.36 61.96 -44.37 60.17 C-44.37 56.42 -44.37 52.67 -44.37 48.92 C-44.37 44.1 -44.39 39.28 -44.4 34.47 C-44.41 30.77 -44.42 27.08 -44.42 23.39 C-44.42 21.61 -44.42 19.84 -44.43 18.06 C-44.44 15.58 -44.44 13.1 -44.43 10.62 C-44.44 9.88 -44.44 9.14 -44.45 8.38 C-44.42 3.29 -44.42 3.29 -42.19 1.06 C-39.62 0.89 -37.18 0.83 -34.62 0.88 C-33.93 0.88 -33.23 0.88 -32.51 0.88 C-27.33 0.92 -27.33 0.92 -26.19 2.06 C-25.61 5.16 -25.16 8.26 -24.69 11.38 C-24.47 13.97 -24.47 13.97 -23.19 15.06 C-22.86 14.55 -22.53 14.05 -22.19 13.52 C-16.77 5.68 -9.86 -0.13 0 0 Z " fill="#FAFCFC" transform="translate(1101.1875,203.9375)"/>
<path d="M0 0 C4.6 3.56 6.58 7.32 8.04 12.87 C8.23 13.46 8.41 14.04 8.6 14.64 C10.41 23.71 10.05 35.5 6.04 43.87 C3 48.15 0.12 52.18 -4.96 53.87 C-7.76 53.99 -10.53 54.06 -13.33 54.06 C-14.09 54.07 -14.84 54.08 -15.62 54.1 C-19.85 54.11 -23.12 53.86 -26.96 51.87 C-29.97 48.86 -28.28 37.42 -28.31 33.13 C-28.32 31.13 -28.35 29.13 -28.39 27.14 C-28.44 24.26 -28.47 21.39 -28.48 18.51 C-28.5 17.62 -28.53 16.73 -28.55 15.82 C-28.53 11.37 -28.45 9.49 -25.6 5.91 C-18.1 0.14 -9.31 -5.37 0 0 Z " fill="#000100" transform="translate(647.95703125,221.12890625)"/>
<path d="M0 0 C6.54 5.45 7.4 12.82 8.25 20.88 C9.05 30.95 7.82 40.63 1.98 49.04 C-1.35 52.57 -4.17 54.03 -9 54.24 C-10.58 54.24 -12.17 54.22 -13.75 54.19 C-14.54 54.19 -15.34 54.19 -16.16 54.2 C-25.51 54.11 -25.51 54.11 -28.75 50.88 C-29.04 44.96 -29.06 39.05 -29.1 33.13 C-29.12 31.13 -29.14 29.14 -29.18 27.14 C-29.24 24.27 -29.26 21.39 -29.27 18.52 C-29.3 17.63 -29.32 16.74 -29.34 15.82 C-29.33 11.37 -29.24 9.5 -26.4 5.91 C-17.88 -0.63 -10.49 -4.29 0 0 Z " fill="#000100" transform="translate(561.75,221.125)"/>
<path d="M0 0 C0.94 0 1.89 0.01 2.86 0.01 C3.78 -0.01 4.7 -0.02 5.64 -0.04 C13.34 -0.04 20.46 0.91 26.36 6.2 C29.67 10.49 29.4 15 29.3 20.24 C28.26 26.61 24.64 29.56 19.8 33.32 C20.22 38.59 23.12 41.85 26.24 45.88 C27.24 47.2 28.24 48.51 29.23 49.83 C29.68 50.4 30.12 50.98 30.58 51.57 C31.8 53.32 31.8 53.32 32.83 55.42 C33.76 57.49 33.76 57.49 35.8 59.32 C25.7 59.59 25.7 59.59 21.76 56.97 C18.92 53.81 16.77 50.28 14.55 46.68 C14.16 46.04 13.76 45.41 13.36 44.75 C12.58 43.48 11.82 42.19 11.08 40.9 C9.92 38.87 9.92 38.87 7.8 36.32 C5.15 35.7 5.15 35.7 2.8 36.32 C1.18 37.94 1.58 39.78 1.48 42.01 C1.44 42.96 1.4 43.9 1.36 44.88 C1.32 45.87 1.28 46.86 1.24 47.88 C1.19 48.88 1.15 49.88 1.11 50.91 C1 53.38 0.9 55.85 0.8 58.32 C-0.68 58.35 -2.16 58.37 -3.64 58.38 C-4.46 58.4 -5.29 58.41 -6.13 58.42 C-8.2 58.32 -8.2 58.32 -9.2 57.32 C-9.31 55.61 -9.34 53.9 -9.35 52.19 C-9.35 51.1 -9.36 50 -9.37 48.87 C-9.37 47.68 -9.37 46.49 -9.37 45.26 C-9.37 44.05 -9.38 42.83 -9.38 41.58 C-9.38 39.01 -9.39 36.43 -9.39 33.86 C-9.39 29.91 -9.41 25.95 -9.43 22 C-9.43 19.5 -9.43 17.01 -9.43 14.51 C-9.44 13.32 -9.45 12.13 -9.45 10.91 C-9.45 9.26 -9.45 9.26 -9.44 7.58 C-9.45 6.61 -9.45 5.64 -9.45 4.64 C-8.86 -0.93 -4.43 0.03 0 0 Z " fill="#FAFCFC" transform="translate(657.201171875,68.677734375)"/>
<path d="M0 0 C3.95 0.1 4.44 0.29 7.4 3.25 C8.17 4.49 8.91 5.75 9.62 7.03 C10.03 7.7 10.44 8.37 10.86 9.06 C11.72 10.48 12.57 11.91 13.4 13.34 C15.09 16.22 16.86 19.03 18.64 21.85 C19.91 23.87 21.16 25.89 22.41 27.91 C24.74 31.65 27.19 35.31 29.72 38.93 C30.68 40.53 30.68 40.53 30.68 42.53 C31.34 42.53 32 42.53 32.68 42.53 C33.01 29 33.34 15.47 33.68 1.53 C36.42 0.17 38.67 0.4 41.68 0.53 C42.68 1.53 42.68 1.53 42.8 3.82 C42.8 4.83 42.8 5.84 42.8 6.88 C42.8 8.02 42.8 9.16 42.8 10.34 C42.79 11.58 42.79 12.82 42.78 14.1 C42.78 15.36 42.78 16.63 42.78 17.93 C42.77 21.29 42.76 24.66 42.75 28.02 C42.74 31.45 42.74 34.89 42.73 38.32 C42.72 45.06 42.7 51.79 42.68 58.53 C32.6 59.16 32.6 59.16 29.18 56.82 C28.69 56.07 28.19 55.31 27.68 54.53 C27.18 53.8 26.67 53.06 26.15 52.31 C25.67 51.51 25.19 50.72 24.7 49.9 C24.15 49.01 23.61 48.12 23.05 47.2 C22.5 46.28 21.94 45.36 21.37 44.41 C17.57 38.11 13.69 31.97 9.37 26.02 C7.3 22.97 5.51 19.73 3.68 16.53 C3.35 30.39 3.02 44.25 2.68 58.53 C0.04 58.53 -2.6 58.53 -5.32 58.53 C-7.01 56.84 -6.45 54.72 -6.46 52.4 C-6.47 51.31 -6.47 50.21 -6.48 49.08 C-6.48 47.89 -6.48 46.7 -6.48 45.47 C-6.49 44.26 -6.49 43.04 -6.49 41.79 C-6.5 39.22 -6.5 36.64 -6.5 34.07 C-6.5 30.11 -6.52 26.16 -6.54 22.21 C-6.54 19.71 -6.55 17.22 -6.55 14.72 C-6.55 13.53 -6.56 12.34 -6.57 11.12 C-6.56 9.47 -6.56 9.47 -6.56 7.79 C-6.56 6.82 -6.56 5.85 -6.56 4.85 C-6.11 0.6 -3.8 0.18 0 0 Z " fill="#FAFCFC" transform="translate(941.31640625,68.46875)"/>
<path d="M0 0 C1.21 0.01 1.21 0.01 2.44 0.02 C3.22 0.02 4.01 0.01 4.81 0 C12.68 0.03 19.54 1.14 25.82 6.27 C29.62 10.18 30.13 13.44 30.32 18.71 C30.12 24.49 29.46 27.77 25.82 32.27 C20.37 36.68 15.91 37.42 9.07 37.27 C7.32 37.24 5.57 37.23 3.82 37.27 C2.23 38.86 2.6 40.55 2.5 42.75 C2.46 43.65 2.42 44.54 2.37 45.47 C2.31 46.89 2.31 46.89 2.25 48.34 C2.21 49.29 2.17 50.23 2.12 51.21 C2.02 53.57 1.91 55.92 1.82 58.27 C0.34 58.3 -1.14 58.32 -2.62 58.34 C-3.44 58.35 -4.27 58.36 -5.12 58.37 C-7.18 58.27 -7.18 58.27 -8.18 57.27 C-8.29 55.57 -8.32 53.85 -8.33 52.14 C-8.34 51.05 -8.34 49.95 -8.35 48.83 C-8.35 47.63 -8.35 46.44 -8.35 45.21 C-8.35 44 -8.36 42.79 -8.36 41.53 C-8.37 38.96 -8.37 36.38 -8.37 33.81 C-8.37 29.86 -8.39 25.9 -8.41 21.95 C-8.41 19.46 -8.41 16.96 -8.41 14.46 C-8.42 13.28 -8.43 12.09 -8.44 10.86 C-8.43 9.21 -8.43 9.21 -8.43 7.53 C-8.43 6.56 -8.43 5.59 -8.43 4.6 C-7.88 -0.57 -4.38 0.01 0 0 Z " fill="#FAFCFC" transform="translate(503.18359375,68.7265625)"/>
<path d="M0 0 C4.45 3.31 6.95 7.78 8.69 13 C9.83 29.78 9.83 29.78 4.69 37 C-0.62 41.93 -4.18 42.35 -11.27 42.28 C-17.02 41.75 -19.96 39.29 -24.12 35.31 C-28.05 29.37 -28.92 23.27 -27.84 16.27 C-26.48 10.43 -24.69 5.63 -19.75 2 C-13.39 -1.7 -7.04 -2.12 0 0 Z " fill="#000100" transform="translate(904.3125,78)"/>
<path d="M0 0 C5.22 4.83 7.38 9.05 7.77 16.02 C7.79 17.41 7.8 18.8 7.81 20.19 C7.83 20.87 7.85 21.56 7.88 22.27 C7.92 27.95 6.91 32.71 3.03 37.12 C-3.21 41.74 -7.69 42.23 -15.44 41.38 C-21.14 39.25 -24.54 35.71 -27.44 30.38 C-29.84 23.15 -29.52 14.65 -26.31 7.75 C-20.91 -1.59 -9.74 -4.61 0 0 Z " fill="#000100" transform="translate(618.4375,78.625)"/>
<path d="M0 0 C4.04 -1.18 7 -1.44 11 0 C14.91 4.35 17.41 9.86 19.92 15.1 C21.05 17.09 22.31 18.46 24 20 C25.06 18.33 26.13 16.67 27.19 15 C27.82 14 28.46 13 29.12 11.98 C31.11 8.83 33.05 5.66 34.96 2.46 C36 1 36 1 38 0 C44.47 -0.35 44.47 -0.35 48 2 C47.47 2.76 46.95 3.52 46.41 4.31 C44.47 7.14 42.54 9.98 40.63 12.83 C39.8 14.07 38.96 15.29 38.11 16.51 C36.9 18.27 35.71 20.05 34.52 21.82 C33.44 23.42 33.44 23.42 32.33 25.05 C30.68 27.9 30.68 27.9 31.68 30.7 C32.11 31.46 32.55 32.22 33 33 C33.82 34.44 33.82 34.44 34.66 35.91 C35.31 36.95 35.96 37.99 36.62 39.06 C36.97 39.62 37.32 40.18 37.67 40.75 C41.32 46.59 45.14 52.3 49 58 C46.6 59.2 45.34 59.08 42.69 58.88 C41.93 58.83 41.17 58.79 40.39 58.74 C34.24 56.83 31.21 50.45 28.19 45.19 C27.58 44.15 27.58 44.15 26.96 43.09 C25.96 41.4 24.98 39.7 24 38 C21.61 40.76 19.67 43.48 18.03 46.73 C12.56 57.38 12.56 57.38 7.97 59.2 C5.21 59.42 2.74 59.4 0 59 C0.64 55.78 1.78 53.42 3.5 50.62 C4.03 49.76 4.55 48.89 5.1 48 C6.51 45.77 7.95 43.59 9.43 41.41 C9.85 40.79 10.26 40.18 10.69 39.54 C11.51 38.32 12.34 37.11 13.19 35.91 C15.47 32.55 15.47 32.55 15.8 28.62 C14.89 25.63 13.6 23.45 11.88 20.84 C11.25 19.88 10.63 18.92 9.98 17.94 C9.33 16.95 8.67 15.96 8 14.94 C6.7 12.97 5.41 11 4.12 9.03 C3.55 8.16 2.98 7.29 2.38 6.39 C1.12 4.2 0.45 2.47 0 0 Z " fill="#F9FBFB" transform="translate(439,69)"/>
<path d="M0 0 C1.92 0.01 1.92 0.01 3.88 0.01 C4.91 0.01 4.91 0.01 5.95 0.01 C7.4 0.02 8.84 0.02 10.28 0.04 C12.5 0.06 14.72 0.06 16.93 0.06 C27.8 0.1 27.8 0.1 28.94 1.24 C29.08 3.91 28.99 6.57 28.94 9.24 C28.28 9.27 27.62 9.29 26.94 9.32 C23.96 9.43 20.98 9.56 18.01 9.68 C16.44 9.74 16.44 9.74 14.85 9.8 C13.37 9.86 13.37 9.86 11.85 9.93 C10.94 9.96 10.02 10 9.08 10.04 C6.96 10.01 6.96 10.01 5.94 11.24 C5.84 13.24 5.81 15.24 5.82 17.24 C5.82 18.34 5.81 19.43 5.81 20.56 C5.64 23.16 5.64 23.16 6.94 24.24 C8.35 24.39 9.75 24.47 11.16 24.52 C12.01 24.56 12.86 24.6 13.74 24.64 C14.63 24.67 15.52 24.71 16.44 24.74 C18.2 24.81 19.96 24.88 21.72 24.96 C22.51 24.99 23.29 25.02 24.1 25.05 C25.94 25.24 25.94 25.24 26.94 26.24 C26.98 28.24 26.99 30.24 26.94 32.24 C26.34 32.27 25.74 32.29 25.12 32.32 C22.42 32.43 19.71 32.56 17.01 32.68 C15.59 32.74 15.59 32.74 14.14 32.8 C13.24 32.84 12.34 32.88 11.42 32.93 C10.17 32.98 10.17 32.98 8.89 33.04 C6.94 33.04 6.94 33.04 5.94 34.24 C5.87 36.77 5.85 39.28 5.88 41.81 C5.89 42.52 5.89 43.23 5.89 43.96 C5.91 45.72 5.92 47.48 5.94 49.24 C6.93 49.28 6.93 49.28 7.95 49.32 C10.92 49.43 13.9 49.56 16.88 49.68 C17.92 49.72 18.96 49.76 20.03 49.8 C21.02 49.84 22.01 49.88 23.03 49.93 C24.41 49.98 24.41 49.98 25.81 50.04 C27.94 50.24 27.94 50.24 28.94 51.24 C28.98 53.58 28.99 55.91 28.94 58.24 C24.26 58.27 19.58 58.29 14.9 58.3 C13.31 58.3 11.71 58.31 10.12 58.32 C7.83 58.33 5.55 58.34 3.26 58.34 C2.54 58.35 1.83 58.35 1.09 58.36 C-0.63 58.36 -2.34 58.3 -4.06 58.24 C-5.75 56.55 -5.19 54.43 -5.2 52.11 C-5.21 51.02 -5.21 49.92 -5.22 48.8 C-5.22 47.6 -5.22 46.41 -5.22 45.18 C-5.23 43.97 -5.23 42.76 -5.23 41.5 C-5.24 38.93 -5.24 36.35 -5.24 33.78 C-5.24 29.83 -5.26 25.87 -5.28 21.92 C-5.28 19.43 -5.29 16.93 -5.29 14.43 C-5.29 13.24 -5.3 12.06 -5.31 10.83 C-5.3 9.18 -5.3 9.18 -5.3 7.5 C-5.3 6.53 -5.3 5.56 -5.3 4.56 C-4.9 0.79 -3.66 0.29 0 0 Z " fill="#FBFDFD" transform="translate(404.056884765625,68.757080078125)"/>
<path d="M0 0 C1.92 0.01 1.92 0.01 3.88 0.01 C4.91 0.01 4.91 0.01 5.95 0.01 C7.4 0.02 8.84 0.02 10.28 0.04 C12.5 0.06 14.72 0.06 16.93 0.06 C27.8 0.1 27.8 0.1 28.94 1.24 C29.18 6.77 29.18 6.77 27.94 9.24 C27 9.28 27 9.28 26.03 9.32 C23.19 9.43 20.35 9.56 17.51 9.68 C16.02 9.74 16.02 9.74 14.5 9.8 C13.55 9.84 12.61 9.88 11.63 9.93 C10.76 9.96 9.89 10 8.98 10.04 C6.95 10.02 6.95 10.02 5.94 11.24 C5.84 13.24 5.81 15.24 5.82 17.24 C5.82 18.34 5.81 19.43 5.81 20.56 C5.64 23.16 5.64 23.16 6.94 24.24 C8.35 24.39 9.75 24.47 11.16 24.52 C12.01 24.56 12.86 24.6 13.74 24.64 C14.63 24.67 15.52 24.71 16.44 24.74 C18.2 24.81 19.96 24.88 21.72 24.96 C22.51 24.99 23.29 25.02 24.1 25.05 C25.94 25.24 25.94 25.24 26.94 26.24 C26.98 28.24 26.99 30.24 26.94 32.24 C26.34 32.27 25.74 32.29 25.12 32.32 C22.42 32.43 19.71 32.56 17.01 32.68 C15.59 32.74 15.59 32.74 14.14 32.8 C13.24 32.84 12.34 32.88 11.42 32.93 C10.17 32.98 10.17 32.98 8.89 33.04 C6.94 33.04 6.94 33.04 5.94 34.24 C5.87 36.77 5.85 39.28 5.88 41.81 C5.89 42.52 5.89 43.23 5.89 43.96 C5.91 45.72 5.92 47.48 5.94 49.24 C6.6 49.26 7.26 49.27 7.93 49.29 C10.89 49.36 13.86 49.46 16.82 49.56 C18.37 49.59 18.37 49.59 19.95 49.62 C20.93 49.66 21.92 49.69 22.94 49.73 C23.85 49.76 24.76 49.78 25.7 49.81 C26.44 49.95 27.18 50.1 27.94 50.24 C29.94 53.24 29.94 53.24 29.57 55.93 C29.36 56.69 29.16 57.46 28.94 58.24 C24.26 58.27 19.58 58.29 14.9 58.3 C13.31 58.3 11.71 58.31 10.12 58.32 C7.83 58.33 5.55 58.34 3.26 58.34 C2.54 58.35 1.83 58.35 1.09 58.36 C-0.63 58.36 -2.34 58.3 -4.06 58.24 C-5.75 56.55 -5.19 54.43 -5.2 52.11 C-5.21 51.02 -5.21 49.92 -5.22 48.8 C-5.22 47.6 -5.22 46.41 -5.22 45.18 C-5.23 43.97 -5.23 42.76 -5.23 41.5 C-5.24 38.93 -5.24 36.35 -5.24 33.78 C-5.24 29.83 -5.26 25.87 -5.28 21.92 C-5.28 19.43 -5.29 16.93 -5.29 14.43 C-5.29 13.24 -5.3 12.06 -5.31 10.83 C-5.3 9.18 -5.3 9.18 -5.3 7.5 C-5.3 6.53 -5.3 5.56 -5.3 4.56 C-4.9 0.79 -3.66 0.29 0 0 Z " fill="#FBFDFD" transform="translate(705.056884765625,68.757080078125)"/>
<path d="M0 0 C0.33 0 0.66 0 1 0 C1 21.12 1 42.24 1 64 C-20.45 64 -41.9 64 -64 64 C-64 63.67 -64 63.34 -64 63 C-62.71 62.85 -62.71 62.85 -61.39 62.7 C-49.49 61.2 -39.08 58.72 -29 52 C-27.95 51.36 -26.9 50.72 -25.81 50.06 C-24.42 49.04 -24.42 49.04 -23 48 C-23 47.01 -23 46.02 -23 45 C-22.3 45 -21.6 45 -20.88 45 C-16.4 43.44 -14.55 39.85 -12 36 C-11.34 35.01 -10.68 34.02 -10 33 C-4.03 22.37 -1.01 12.11 0 0 Z " fill="#000100" transform="translate(1279,320)"/>
<path d="M0 0 C1.1 0 1.1 0 2.23 0 C3.06 0 3.9 -0 4.76 -0.01 C5.66 0 6.56 0.01 7.49 0.02 C8.88 0.02 8.88 0.02 10.29 0.02 C12.25 0.02 14.21 0.03 16.16 0.04 C19.17 0.06 22.17 0.06 25.17 0.06 C27.07 0.07 28.97 0.07 30.87 0.08 C31.77 0.08 32.67 0.08 33.6 0.08 C34.43 0.09 35.27 0.1 36.13 0.1 C36.86 0.11 37.6 0.11 38.36 0.11 C40.18 0.25 40.18 0.25 42.18 1.25 C41.85 3.89 41.52 6.53 41.18 9.25 C39.57 9.34 39.57 9.34 37.93 9.43 C36.54 9.52 35.14 9.6 33.74 9.68 C32.68 9.74 32.68 9.74 31.6 9.8 C28.09 9.72 28.09 9.72 25.18 11.25 C25.06 12.72 25 14.2 24.97 15.68 C24.95 16.62 24.93 17.56 24.91 18.53 C24.89 20.06 24.89 20.06 24.86 21.63 C24.84 22.67 24.82 23.71 24.8 24.78 C24.73 28.13 24.67 31.47 24.62 34.81 C24.57 37.07 24.53 39.33 24.49 41.59 C24.38 47.14 24.28 52.69 24.18 58.25 C22.53 58.27 20.89 58.29 19.24 58.31 C18.32 58.32 17.41 58.33 16.46 58.34 C14.18 58.25 14.18 58.25 13.18 57.25 C13.06 55.77 13 54.3 12.97 52.82 C12.95 51.88 12.93 50.94 12.91 49.97 C12.9 48.95 12.88 47.92 12.86 46.87 C12.84 45.83 12.82 44.78 12.8 43.71 C12.73 40.37 12.67 37.03 12.62 33.68 C12.57 31.42 12.53 29.17 12.49 26.91 C12.38 21.35 12.28 15.8 12.18 10.25 C11.11 10.19 10.04 10.13 8.93 10.06 C7.54 9.98 6.14 9.89 4.74 9.81 C4.03 9.77 3.33 9.73 2.6 9.69 C-2.71 9.36 -2.71 9.36 -3.82 8.25 C-4.01 5.31 -4.01 5.31 -3.82 2.25 C-1.82 0.25 -1.82 0.25 0 0 Z " fill="#FBFDFD" transform="translate(793.821533203125,68.75276184082031)"/>
<path d="M0 0 C1.82 3.64 2.72 6.64 3.69 10.56 C7.51 24.19 16.32 35.19 28 43 C28.75 43.52 29.5 44.03 30.27 44.56 C40.27 51.03 51.34 53.4 63 55 C63 55.33 63 55.66 63 56 C42.21 56 21.42 56 0 56 C0 37.52 0 19.04 0 0 Z " fill="#000100" transform="translate(0,328)"/>
<path d="M0 0 C17.82 0 35.64 0 54 0 C54 20.46 54 40.92 54 62 C53.67 62 53.34 62 53 62 C52.83 60.96 52.66 59.92 52.48 58.85 C50.01 44.34 45.64 28.97 34 19 C33.4 18.4 32.8 17.8 32.18 17.18 C23.22 8.49 12.13 3.6 0 1 C0 0.67 0 0.34 0 0 Z " fill="#000100" transform="translate(1226,0)"/>
<path d="M0 0 C17.82 0 35.64 0 54 0 C50.3 1.85 46.89 2.99 42.94 4.19 C35.02 6.71 27.72 10.21 21.82 16.21 C20 18 20 18 18 18 C17.73 18.59 17.45 19.18 17.17 19.79 C16.04 21.93 14.79 23.57 13.25 25.44 C6.61 34.19 3.19 44.34 1 55 C0.67 55 0.34 55 0 55 C0 36.85 0 18.7 0 0 Z " fill="#000100" transform="translate(0,0)"/>
<path d="M0 0 C3.44 0.19 3.44 0.19 4.44 1.19 C4.56 2.66 4.62 4.14 4.64 5.62 C4.66 6.56 4.68 7.5 4.7 8.47 C4.72 9.49 4.74 10.51 4.75 11.57 C4.77 12.61 4.8 13.65 4.82 14.72 C4.88 18.07 4.94 21.41 5 24.75 C5.04 27.01 5.09 29.27 5.13 31.53 C5.24 37.08 5.34 42.63 5.44 48.19 C6.43 48.23 6.43 48.23 7.44 48.26 C10.42 48.38 13.4 48.5 16.38 48.62 C17.42 48.66 18.46 48.7 19.53 48.74 C20.52 48.79 21.51 48.83 22.53 48.87 C23.9 48.93 23.9 48.93 25.3 48.98 C27.44 49.19 27.44 49.19 28.44 50.19 C28.56 53.69 28.56 53.69 28.44 57.19 C26.76 58.86 24.71 58.32 22.47 58.33 C21.43 58.32 21.43 58.32 20.38 58.32 C19.67 58.32 18.96 58.32 18.23 58.32 C16.74 58.32 15.24 58.32 13.75 58.32 C11.45 58.31 9.15 58.32 6.85 58.32 C5.4 58.32 3.95 58.32 2.5 58.32 C1.46 58.32 1.46 58.32 0.4 58.33 C-4.45 58.3 -4.45 58.3 -5.56 57.19 C-5.67 55.48 -5.7 53.77 -5.71 52.06 C-5.71 50.96 -5.72 49.87 -5.73 48.74 C-5.73 47.55 -5.73 46.36 -5.73 45.13 C-5.73 43.91 -5.74 42.7 -5.74 41.45 C-5.75 38.87 -5.75 36.3 -5.75 33.72 C-5.75 29.77 -5.77 25.82 -5.79 21.87 C-5.79 19.37 -5.79 16.87 -5.79 14.38 C-5.8 13.19 -5.81 12 -5.81 10.77 C-5.81 9.13 -5.81 9.13 -5.81 7.45 C-5.81 6.48 -5.81 5.51 -5.81 4.51 C-5.37 0.42 -3.94 0.21 0 0 Z " fill="#FBFDFD" transform="translate(548.5625,68.8125)"/>
<path d="M0 0 C1.98 0 3.96 0 6 0 C6.34 0.88 6.68 1.76 7.02 2.67 C7.47 3.83 7.92 4.99 8.38 6.19 C8.82 7.34 9.26 8.48 9.71 9.67 C10.14 10.77 10.56 11.87 11 13 C11.36 13.94 11.73 14.89 12.1 15.86 C12.82 17.94 12.82 17.94 14 19 C14.41 17.8 14.82 16.59 15.24 15.35 C15.79 13.78 16.33 12.2 16.88 10.62 C17.14 9.83 17.41 9.04 17.69 8.22 C17.96 7.46 18.22 6.7 18.49 5.91 C18.73 5.21 18.97 4.51 19.22 3.79 C20 2 20 2 22 0 C23.94 -0.06 23.94 -0.06 26 1 C28.75 6.08 29.91 11.36 31 17 C31.66 17 32.32 17 33 17 C33.5 17.99 33.5 17.99 34 19 C35.98 13.06 37.96 7.12 40 1 C41.65 0.67 43.3 0.34 45 0 C45.5 0.5 45.5 0.5 46 1 C45.61 8.11 43.35 14.34 40.94 21 C40.56 22.06 40.18 23.12 39.79 24.21 C38.87 26.81 37.94 29.41 37 32 C31.25 32.12 31.25 32.12 29 31 C28.06 28.34 27.22 25.71 26.44 23 C25.37 18.12 25.37 18.12 23 14 C22.58 15.22 22.16 16.43 21.72 17.68 C21.17 19.27 20.62 20.85 20.06 22.44 C19.78 23.24 19.51 24.04 19.22 24.87 C18.95 25.63 18.69 26.4 18.41 27.18 C18.16 27.89 17.92 28.6 17.66 29.33 C17 31 17 31 16 32 C13.62 32.38 13.62 32.38 11 32 C7.47 26.97 5.79 21.2 3.81 15.44 C3.44 14.4 3.08 13.36 2.7 12.28 C2.35 11.28 2 10.28 1.64 9.25 C1.33 8.34 1.01 7.42 0.69 6.49 C0 4 0 4 0 0 Z " fill="#FBFDFD" transform="translate(210,191)"/>
<path d="M0 0 C0.78 -0.01 1.55 -0.02 2.35 -0.04 C4.36 -0.04 6.37 0.07 8.38 0.19 C11.58 3.39 10.97 7.14 11.02 11.5 C10.92 14.71 10.65 16.8 8.76 19.44 C6.68 21.01 4.76 22.14 2.38 23.19 C1.61 23.55 0.84 23.92 0.04 24.3 C-3.27 25.4 -6.14 25.52 -9.62 25.56 C-10.82 25.59 -12.02 25.62 -13.25 25.65 C-17.21 25.11 -18.81 23.97 -21.62 21.19 C-23.36 17.71 -23.08 13.99 -22.62 10.19 C-20.23 5.22 -17.71 3.2 -12.62 1.19 C-8.4 -0.04 -4.37 0 0 0 Z " fill="#000100" transform="translate(837.625,249.8125)"/>
<path d="M0 0 C1.68 0.29 3.34 0.62 5 1 C5.15 1.83 5.29 2.67 5.45 3.53 C7.53 13.99 10.86 21.65 19.9 27.71 C20.59 28.14 21.29 28.56 22 29 C22.62 29.41 23.24 29.83 23.88 30.25 C32.02 34.83 43.25 34.27 52.14 32.3 C59.76 29.52 65.74 24.55 69.87 17.57 C72.34 11.97 73.62 5.94 75 0 C76.65 0.33 78.3 0.66 80 1 C80.71 10.46 77.69 18.82 71.69 26.16 C63.73 34.83 54.86 39.89 43 41 C28.72 41 18.71 36.25 8.19 26.75 C2.9 21.25 -1.15 12.55 -1.12 4.88 C-1 1 -1 1 0 0 Z " fill="#FBFDFD" transform="translate(166,110)"/>
<path d="M0 0 C0.66 0 1.32 0 2 0 C2.13 0.55 2.26 1.1 2.39 1.66 C4.92 11.35 8.7 20.75 12.19 30.12 C12.86 31.95 12.86 31.95 13.55 33.81 C15.58 39.49 15.58 39.49 18 45 C7.44 44.67 -3.12 44.34 -14 44 C-12.88 36.14 -12.88 36.14 -11.33 32.29 C-11 31.44 -10.66 30.6 -10.32 29.73 C-9.97 28.85 -9.61 27.97 -9.25 27.06 C-5.75 18.15 -2.7 9.19 0 0 Z " fill="#000100" transform="translate(451,199)"/>
<path d="M0 0 C3.44 0.19 3.44 0.19 4.44 1.19 C4.53 2.97 4.55 4.75 4.55 6.53 C4.55 7.67 4.55 8.82 4.55 9.99 C4.55 11.23 4.54 12.47 4.54 13.75 C4.53 15.02 4.53 16.28 4.53 17.58 C4.53 20.95 4.52 24.31 4.51 27.68 C4.5 31.11 4.49 34.54 4.49 37.97 C4.48 44.71 4.46 51.45 4.44 58.19 C2.96 58.21 1.48 58.23 0 58.25 C-0.82 58.26 -1.65 58.27 -2.5 58.29 C-4.56 58.19 -4.56 58.19 -5.56 57.19 C-5.67 55.48 -5.7 53.77 -5.71 52.06 C-5.71 50.96 -5.72 49.87 -5.73 48.74 C-5.73 47.55 -5.73 46.36 -5.73 45.13 C-5.73 43.91 -5.74 42.7 -5.74 41.45 C-5.75 38.87 -5.75 36.3 -5.75 33.72 C-5.75 29.77 -5.77 25.82 -5.79 21.87 C-5.79 19.37 -5.79 16.87 -5.79 14.38 C-5.8 13.19 -5.81 12 -5.81 10.77 C-5.81 9.13 -5.81 9.13 -5.81 7.45 C-5.81 6.48 -5.81 5.51 -5.81 4.51 C-5.37 0.42 -3.94 0.21 0 0 Z " fill="#FBFDFD" transform="translate(776.5625,68.8125)"/>
<path d="M0 0 C5.48 5.22 6.56 10.02 7.62 17.5 C-3.6 17.5 -14.82 17.5 -26.38 17.5 C-27.38 15.5 -27.38 15.5 -26.74 13.51 C-24.19 7.89 -21.96 3.29 -16.75 -0.31 C-10.91 -2.37 -5.69 -2.53 0 0 Z " fill="#000100" transform="translate(1016.375,219.5)"/>
<path d="M0 0 C2.45 0.07 2.45 0.07 5 1 C6.52 3.09 6.52 3.09 7.81 5.94 C8.31 7.01 8.8 8.07 9.31 9.18 C9.88 10.45 10.44 11.72 11 13 C11.71 14.58 12.42 16.15 13.12 17.73 C14.85 21.58 16.56 25.44 18.25 29.31 C18.8 30.55 19.39 31.78 20 33 C14.65 32.82 14.65 32.82 12 32 C11.42 30.99 10.84 29.98 10.25 28.94 C8.31 25.69 8.31 25.69 5.09 25.61 C2.04 25.62 -0.96 25.74 -4 26 C-4.99 27.98 -5.98 29.96 -7 32 C-8.98 32 -10.96 32 -13 32 C-13.33 31.34 -13.66 30.68 -14 30 C-13.27 27.88 -12.43 25.81 -11.54 23.75 C-11.28 23.14 -11.02 22.52 -10.75 21.89 C-10.19 20.59 -9.62 19.29 -9.06 18 C-8.19 16.01 -7.34 14.02 -6.49 12.03 C-2.28 2.28 -2.28 2.28 0 0 Z " fill="#FBFDFD" transform="translate(193,191)"/>
<path d="M0 0 C0.89 -0 1.77 -0.01 2.69 -0.01 C4.08 0 4.08 0 5.5 0.02 C6.43 0.01 7.36 0 8.31 -0.01 C9.64 -0 9.64 -0 11 0 C11.81 0 12.63 0 13.47 0.01 C15.5 0.27 15.5 0.27 17.5 2.27 C17.5 3.59 17.5 4.91 17.5 6.27 C9.58 6.76 9.58 6.76 1.5 7.27 C1.17 8.59 0.84 9.91 0.5 11.27 C1.21 11.33 1.92 11.39 2.65 11.45 C3.57 11.53 4.49 11.62 5.44 11.7 C6.81 11.82 6.81 11.82 8.21 11.95 C10.5 12.27 10.5 12.27 11.5 13.27 C11.54 14.93 11.54 16.6 11.5 18.27 C10.79 18.33 10.08 18.39 9.35 18.45 C7.97 18.57 7.97 18.57 6.56 18.7 C5.65 18.78 4.73 18.87 3.79 18.95 C1.54 19.03 1.54 19.03 0.5 20.27 C0.46 21.93 0.46 23.6 0.5 25.27 C1.64 25.33 2.79 25.39 3.96 25.45 C5.46 25.53 6.95 25.62 8.44 25.7 C9.19 25.74 9.95 25.78 10.72 25.82 C16.39 26.15 16.39 26.15 17.5 27.27 C17.54 28.93 17.54 30.6 17.5 32.27 C13.69 32.29 9.88 32.31 6.06 32.33 C4.97 32.34 3.89 32.34 2.76 32.35 C1.73 32.36 0.69 32.36 -0.37 32.36 C-1.33 32.37 -2.29 32.37 -3.28 32.38 C-5.5 32.27 -5.5 32.27 -6.5 31.27 C-6.72 27.15 -6.69 23.03 -6.69 18.91 C-6.69 16.84 -6.71 14.77 -6.72 12.7 C-6.73 11.4 -6.73 10.11 -6.73 8.77 C-6.73 7.57 -6.74 6.37 -6.74 5.14 C-6.34 0.34 -4.32 0.01 0 0 Z " fill="#FBFDFD" transform="translate(268.5,190.734375)"/>
<path d="M0 0 C1.65 0.33 3.3 0.66 5 1 C5.33 8.59 5.66 16.18 6 24 C8.75 24.92 10.36 25.11 13.19 25.06 C14.45 25.04 15.7 25.02 17 25 C18.2 22.6 18.17 20.96 18.25 18.28 C18.28 17.35 18.31 16.42 18.35 15.46 C18.41 13.49 18.46 11.51 18.52 9.54 C18.55 8.61 18.59 7.68 18.62 6.72 C18.65 5.86 18.67 5.01 18.7 4.12 C19 2 19 2 21 0 C24.54 0.54 24.54 0.54 26 2 C26.25 5.03 26.19 8.08 26.19 11.12 C26.2 11.97 26.21 12.81 26.22 13.68 C26.24 19.91 26.22 25.6 21.78 30.41 C16.79 33.27 11.57 32.69 6 32 C2.63 30.83 0.67 29.17 -1.13 26.02 C-2.44 21.47 -2.29 17.03 -2.25 12.31 C-2.26 11.35 -2.27 10.39 -2.27 9.4 C-2.27 8.48 -2.27 7.56 -2.27 6.61 C-2.26 5.78 -2.26 4.94 -2.26 4.08 C-2 2 -2 2 0 0 Z " fill="#FBFDFD" transform="translate(149,191)"/>
<path d="M0 0 C0.33 3.63 0.66 7.26 1 11 C7.93 11.5 7.93 11.5 15 12 C14.96 10.23 14.92 8.45 14.88 6.62 C14.8 3.6 14.8 3.6 15 1 C15.66 0.34 16.32 -0.32 17 -1 C18.32 -0.67 19.64 -0.34 21 0 C21 10.23 21 20.46 21 31 C19.35 31 17.7 31 16 31 C14.26 29.26 14.63 26.81 14.44 24.44 C14.31 22.92 14.31 22.92 14.18 21.37 C14.12 20.59 14.06 19.81 14 19 C12.02 18.97 10.04 18.95 8.06 18.94 C6.96 18.93 5.86 18.91 4.72 18.9 C2.09 18.69 2.09 18.69 1 20 C0.77 21.85 0.59 23.7 0.44 25.56 C0.35 26.57 0.27 27.59 0.18 28.63 C0.12 29.41 0.06 30.19 0 31 C-1.67 31.04 -3.33 31.04 -5 31 C-6 30 -6 30 -6.11 27.13 C-6.11 25.88 -6.1 24.63 -6.1 23.34 C-6.1 22.68 -6.09 22.01 -6.09 21.33 C-6.09 19.2 -6.08 17.07 -6.06 14.94 C-6.06 13.5 -6.05 12.06 -6.05 10.62 C-6.04 7.08 -6.02 3.54 -6 0 C-4 -1 -4 -1 0 0 Z " fill="#FBFDFD" transform="translate(117,192)"/>
<path d="M0 0 C4.03 0.1 6.82 1.11 10.25 3.31 C13.09 7.57 13.12 11.32 12.25 16.31 C9.42 20.14 9.42 20.14 6.25 21.31 C2.54 21.75 -1.04 21.76 -4.75 21.31 C-6.91 19.16 -5.94 14.36 -5.94 11.38 C-5.95 10.54 -5.96 9.7 -5.97 8.84 C-5.98 8.04 -5.98 7.24 -5.98 6.41 C-5.98 5.67 -5.99 4.94 -5.99 4.18 C-5.49 0.29 -3.61 0.3 0 0 Z " fill="#000100" transform="translate(510.75,76.6875)"/>
<path d="M0 0 C1.3 0.01 1.3 0.01 2.63 0.02 C3.5 0.01 4.36 0.01 5.25 0 C7.93 0.28 9.51 0.8 11.76 2.27 C14.43 6.28 14.58 9.55 13.76 14.27 C11.66 17.07 10.09 18.69 6.88 20.08 C3.8 20.35 0.85 20.44 -2.24 20.27 C-4.8 17.71 -4.5 15.99 -4.52 12.5 C-4.51 11.76 -4.5 11.03 -4.49 10.27 C-4.5 9.53 -4.51 8.79 -4.52 8.03 C-4.49 0.53 -4.49 0.53 0 0 Z " fill="#000100" transform="translate(662.2421875,76.734375)"/>
<path d="M0 0 C1.32 0.33 2.64 0.66 4 1 C4 11.23 4 21.46 4 32 C2.35 32 0.7 32 -1 32 C-3.34 29.66 -2.17 23.81 -2.19 20.7 C-2.19 20.02 -2.19 19.34 -2.19 18.64 C-2.19 16.57 -2.21 14.51 -2.22 12.44 C-2.23 11.14 -2.23 9.84 -2.23 8.5 C-2.23 7.31 -2.24 6.11 -2.24 4.87 C-2 2 -2 2 0 0 Z " fill="#FBFDFD" transform="translate(296,191)"/>
<path d="M0 0 C1.68 3.26 2.89 6.5 4 10 C1.69 10.33 -0.62 10.66 -3 11 C-4 8 -4 8 -3.22 5.96 C-2.84 5.25 -2.46 4.54 -2.06 3.81 C-1.68 3.1 -1.3 2.38 -0.91 1.64 C-0.61 1.1 -0.31 0.56 0 0 Z " fill="#C5112E" transform="translate(195,200)"/>
</svg>
